<svg xmlns="http://www.w3.org/2000/svg" width="85" height="85" viewBox="0 0 85 85">
  <g id="Grupo_1158496" data-name="Grupo 1158496" transform="translate(-620.051 -2922)">
    <g id="Elipse_11698" data-name="Elipse 11698" transform="translate(620.051 2922)" fill="#78b62e" stroke="#fff" stroke-width="5">
      <circle cx="42.5" cy="42.5" r="42.5" stroke="none"/>
      <circle cx="42.5" cy="42.5" r="40" fill="none"/>
    </g>
    <g id="evolucion_1_" data-name="evolucion (1)" transform="translate(629.052 2930.997)">
      <g id="Grupo_1158495" data-name="Grupo 1158495" transform="translate(9.703 9.706)">
        <g id="Grupo_1158493" data-name="Grupo 1158493" transform="translate(5.121 4.561)">
          <path id="Trazado_988394" data-name="Trazado 988394" d="M69.757,428.064a6.023,6.023,0,0,1,.847,2.677,5.835,5.835,0,0,1-2.588-1.089,3.532,3.532,0,0,1-.879-1.628l-.207-.844C68.24,426.978,68.837,426.888,69.757,428.064Z" transform="translate(-66.93 -390.287)" fill="#c6ea94" fill-rule="evenodd"/>
          <path id="Trazado_988395" data-name="Trazado 988395" d="M359.75,75.123c1.277-1.91,2.864-4.231,3.042-6.581a9.742,9.742,0,0,0-3.042-7.183,10.077,10.077,0,0,0-3.042,7.183C356.851,70.964,358.556,73.24,359.75,75.123Z" transform="translate(-327.561 -61.36)" fill="#c6ea94" fill-rule="evenodd"/>
          <path id="Trazado_988396" data-name="Trazado 988396" d="M289.137,192.907c.53-1.542,1.509-4.734,3.393-6.406a9.742,9.742,0,0,1,7.558-1.931,10.078,10.078,0,0,1-3.872,6.771c-2.013,1.353-4.857,1.375-7.078,1.566-.529-1.542-1.509-4.734-3.393-6.406a9.741,9.741,0,0,0-7.558-1.931,10.077,10.077,0,0,0,3.872,6.771C284.071,192.694,286.915,192.716,289.137,192.907Z" transform="translate(-256.944 -172.082)" fill="#afe269" fill-rule="evenodd"/>
          <path id="Trazado_988397" data-name="Trazado 988397" d="M289.137,284.732c.53-1.542,1.509-4.734,3.393-6.406a9.742,9.742,0,0,1,7.558-1.931,10.078,10.078,0,0,1-3.872,6.771c-2.013,1.353-4.857,1.375-7.078,1.566-.529-1.542-1.509-4.734-3.393-6.406a9.742,9.742,0,0,0-7.558-1.931,10.077,10.077,0,0,0,3.872,6.771C284.071,284.52,286.915,284.541,289.137,284.732Z" transform="translate(-256.944 -254.674)" fill="#9acd68" fill-rule="evenodd"/>
          <path id="Trazado_988398" data-name="Trazado 988398" d="M188.12,313.534c.914-1.365,2.054-3.041,2.18-4.717a6.984,6.984,0,0,0-2.181-5.149,7.224,7.224,0,0,0-2.18,5.149C186.041,310.553,187.264,312.184,188.12,313.534Z" transform="translate(-173.966 -279.304)" fill="#c6ea94" fill-rule="evenodd"/>
          <path id="Trazado_988399" data-name="Trazado 988399" d="M137.5,397.971c.38-1.105,1.082-3.393,2.432-4.592a6.984,6.984,0,0,1,5.418-1.384,7.224,7.224,0,0,1-2.776,4.854c-1.443.97-3.482.986-5.074,1.123-.38-1.105-1.082-3.393-2.432-4.592a6.984,6.984,0,0,0-5.418-1.384,7.224,7.224,0,0,0,2.776,4.854C133.867,397.819,135.906,397.834,137.5,397.971Z" transform="translate(-123.342 -358.678)" fill="#afe269" fill-rule="evenodd"/>
        </g>
        <g id="Grupo_1158494" data-name="Grupo 1158494" transform="translate(0 0)">
          <path id="Trazado_988400" data-name="Trazado 988400" d="M29.2,17.177a2.794,2.794,0,0,0,3.22,3.22A2.794,2.794,0,0,0,33.6,24.8a2.794,2.794,0,0,0-1.179,4.4,2.794,2.794,0,0,0-3.22,3.22,2.794,2.794,0,0,0-4.4,1.179,2.794,2.794,0,0,0-4.4-1.179,2.794,2.794,0,0,0-3.22-3.22A2.794,2.794,0,0,0,16,24.8a2.794,2.794,0,0,0,1.179-4.4,2.794,2.794,0,0,0,3.22-3.22A2.794,2.794,0,0,0,24.8,16a2.794,2.794,0,0,0,4.4,1.179Z" transform="translate(-16 -15.998)" fill="#fdcd56" fill-rule="evenodd"/>
          <circle id="Elipse_11768" data-name="Elipse 11768" cx="4.487" cy="4.487" r="4.487" transform="translate(2.451 8.798) rotate(-45)" fill="#f5b945"/>
        </g>
      </g>
      <path id="Trazado_988401" data-name="Trazado 988401" d="M17.1,52.977a3.36,3.36,0,0,1,.519,1.274,3.033,3.033,0,0,1-1.214-.625,2.956,2.956,0,0,1-.739-1.52A2.8,2.8,0,0,1,17.1,52.977ZM27.5,43.74a6.444,6.444,0,0,1,1.481-4.068,6.061,6.061,0,0,1,1.475,4.055,8.147,8.147,0,0,1-1.473,3.485A7.776,7.776,0,0,1,27.5,43.74Zm-3.2,8.114a6.446,6.446,0,0,1-2.339-3.643,6.06,6.06,0,0,1,4.12,1.283,8.416,8.416,0,0,1,1.884,3.283A7.765,7.765,0,0,1,24.3,51.854Zm7.581-2.36a5.977,5.977,0,0,1,3.858-1.288c.087,0,.175,0,.262.005a6.449,6.449,0,0,1-2.339,3.643A7.766,7.766,0,0,1,30,52.777,8.417,8.417,0,0,1,31.88,49.494ZM44.673,21.409a9.211,9.211,0,0,1,2.34-6.121A8.846,8.846,0,0,1,49.352,21.4a12.366,12.366,0,0,1-2.332,5.35C45.956,25.114,44.783,23.273,44.673,21.409ZM40.331,42.175a9.211,9.211,0,0,1-3.452-5.57,8.845,8.845,0,0,1,6.277,1.84c1.4,1.242,2.3,3.528,2.849,5.1-1.946-.144-4.124-.325-5.674-1.367Zm0-9.232a9.215,9.215,0,0,1-3.452-5.571,8.847,8.847,0,0,1,6.277,1.84c1.4,1.243,2.3,3.527,2.849,5.1-1.946-.143-4.124-.324-5.674-1.366Zm10.546-3.731a8.638,8.638,0,0,1,5.572-1.865c.235,0,.471.008.705.025A9.217,9.217,0,0,1,53.7,32.943c-1.551,1.042-3.728,1.224-5.674,1.366C48.576,32.74,49.478,30.455,50.877,29.212Zm0,9.233a8.633,8.633,0,0,1,5.572-1.866c.235,0,.471.008.705.026a9.212,9.212,0,0,1-3.452,5.57c-1.551,1.042-3.728,1.223-5.674,1.367C48.576,41.973,49.478,39.688,50.877,38.446Zm7.09,18.821H47.716V44.977l.273-.02c2.156-.158,4.6-.336,6.5-1.613a10.813,10.813,0,0,0,4.179-7.272.7.7,0,0,0-.594-.779,10.475,10.475,0,0,0-8.13,2.1,9.99,9.99,0,0,0-2.226,3.158V35.744l.273-.02c2.156-.158,4.6-.337,6.5-1.613a10.818,10.818,0,0,0,4.179-7.272.7.7,0,0,0-.594-.78,10.479,10.479,0,0,0-8.13,2.1,9.994,9.994,0,0,0-2.226,3.157V28.244c1.277-1.91,2.854-4.281,3.04-6.741A10.48,10.48,0,0,0,47.5,13.762a.7.7,0,0,0-.98,0,10.816,10.816,0,0,0-3.254,7.73c.134,2.283,1.473,4.336,2.653,6.147.133.2.262.4.387.6V31.3a9.964,9.964,0,0,0-2.218-3.142,10.479,10.479,0,0,0-8.13-2.1.7.7,0,0,0-.593.78,10.818,10.818,0,0,0,4.178,7.272c1.9,1.276,4.342,1.455,6.5,1.613l.266.019v4.792a9.961,9.961,0,0,0-2.218-3.143,10.476,10.476,0,0,0-8.13-2.1.7.7,0,0,0-.593.779,10.812,10.812,0,0,0,4.178,7.272c1.9,1.277,4.342,1.455,6.5,1.613l.266.02v12.29H29.681V54.212h.011a9.781,9.781,0,0,0,4.755-1.19,7.966,7.966,0,0,0,3.082-5.355.7.7,0,0,0-.594-.779,7.613,7.613,0,0,0-5.99,1.554,6.454,6.454,0,0,0-1.264,1.607V48.712a10.889,10.889,0,0,0,2.179-4.879,7.612,7.612,0,0,0-2.393-5.707.7.7,0,0,0-.98,0,7.966,7.966,0,0,0-2.393,5.7,9.785,9.785,0,0,0,1.934,4.5l.246.378V50.04a6.469,6.469,0,0,0-1.258-1.6,7.614,7.614,0,0,0-5.99-1.554.7.7,0,0,0-.594.779,7.965,7.965,0,0,0,3.082,5.355,9.781,9.781,0,0,0,4.755,1.19h.005v3.055H13.343c-.046-.287-.113-.6-.186-.929-.392-1.79-.594-3.222.627-4.009a2.421,2.421,0,0,1,.451-.23,4.434,4.434,0,0,0,1.182,2.537,5.54,5.54,0,0,0,2.556,1.175l.338.088a.691.691,0,0,0,.185.025.7.7,0,0,0,.7-.81l-.021-.139A6.186,6.186,0,0,0,18.2,52.11a4.45,4.45,0,0,0-3.278-1.531,3.488,3.488,0,0,0-3.085,1.841c-.688,1.344-.324,3.011-.059,4.22.048.219.094.431.131.627H9.7a.7.7,0,1,0,0,1.408H57.967a.7.7,0,0,0,0-1.408ZM18.5,14.721A3.783,3.783,0,1,1,14.718,18.5,3.788,3.788,0,0,1,18.5,14.721Zm0,8.974a5.191,5.191,0,1,1,5.191-5.19A5.2,5.2,0,0,1,18.5,23.695Zm-6.4-6.905a3.486,3.486,0,0,0-.051-2.009,3.529,3.529,0,0,0,2.728-2.726,3.53,3.53,0,0,0,3.725-1,3.546,3.546,0,0,0,3.722,1,3.529,3.529,0,0,0,2.727,2.729,3.529,3.529,0,0,0,1,3.725,3.55,3.55,0,0,0-1,3.723,3.528,3.528,0,0,0-2.728,2.727,3.524,3.524,0,0,0-3.725,1,3.486,3.486,0,0,0-1.714-1.049,3.6,3.6,0,0,0-.928-.123,3.408,3.408,0,0,0-1.081.174,3.529,3.529,0,0,0-2.727-2.729,3.53,3.53,0,0,0-1-3.726A3.484,3.484,0,0,0,12.1,16.789ZM9.457,19.163a.7.7,0,0,1,0-1.318,2.1,2.1,0,0,0,.882-3.292A.7.7,0,0,1,11,13.411,2.092,2.092,0,0,0,13.408,11a.7.7,0,0,1,1.142-.66,2.093,2.093,0,0,0,3.292-.882.7.7,0,0,1,1.319,0,2.1,2.1,0,0,0,3.292.882.7.7,0,0,1,1.142.66A2.092,2.092,0,0,0,26,13.411a.7.7,0,0,1,.659,1.142,2.093,2.093,0,0,0,.882,3.292.7.7,0,0,1,0,1.318,2.1,2.1,0,0,0-.882,3.292A.7.7,0,0,1,26,23.6a2.093,2.093,0,0,0-2.41,2.409.7.7,0,0,1-1.142.66,2.094,2.094,0,0,0-3.292.882.7.7,0,0,1-1.319,0,2.1,2.1,0,0,0-3.292-.882.7.7,0,0,1-1.142-.66A2.093,2.093,0,0,0,11,23.6a.7.7,0,0,1-.659-1.142,2.093,2.093,0,0,0-.882-3.292Z" fill-rule="evenodd"/>
    </g>
  </g>
</svg>
