<svg xmlns="http://www.w3.org/2000/svg" xmlns:xlink="http://www.w3.org/1999/xlink" width="105.781" height="105.781" viewBox="0 0 105.781 105.781">
  <defs>
    <filter id="Trazado_986931" x="0" y="0" width="105.781" height="105.781" filterUnits="userSpaceOnUse">
      <feOffset dy="3" input="SourceAlpha"/>
      <feGaussianBlur stdDeviation="3" result="blur"/>
      <feFlood flood-opacity="0.161"/>
      <feComposite operator="in" in2="blur"/>
      <feComposite in="SourceGraphic"/>
    </filter>
  </defs>
  <g id="Grupo_1158509" data-name="Grupo 1158509" transform="translate(-1082.051 -1799)">
    <g transform="matrix(1, 0, 0, 1, 1082.05, 1799)" filter="url(#Trazado_986931)">
      <g id="Trazado_986931-2" data-name="Trazado 986931" transform="translate(9 6)" fill="#f3d02c">
        <path d="M 43.8906364440918 85.28125762939453 C 38.30183792114258 85.28125762939453 32.88154220581055 84.18724060058594 27.78030395507812 82.02960205078125 C 22.85183715820312 79.94503021240234 18.42508888244629 76.96026611328125 14.62304973602295 73.15821838378906 C 10.82099628448486 69.35617828369141 7.836236476898193 64.92942810058594 5.751663208007812 60.00096130371094 C 3.59402322769165 54.89972305297852 2.500009775161743 49.47942733764648 2.500009775161743 43.89062881469727 C 2.500009775161743 38.30183029174805 3.59402322769165 32.88153457641602 5.751663208007812 27.78029632568359 C 7.836236476898193 22.85182952880859 10.82099628448486 18.42508125305176 14.62304973602295 14.62304210662842 C 18.42508888244629 10.82098865509033 22.85183715820312 7.836228847503662 27.78030395507812 5.751655578613281 C 32.88154220581055 3.594015598297119 38.30183792114258 2.500002145767212 43.8906364440918 2.500002145767212 C 49.47943496704102 2.500002145767212 54.89973068237305 3.594015598297119 60.00096893310547 5.751655578613281 C 64.92943572998047 7.836228847503662 69.35618591308594 10.82098865509033 73.15822601318359 14.62304210662842 C 76.96027374267578 18.42508125305176 79.94503784179688 22.85182952880859 82.02960968017578 27.78029632568359 C 84.18724822998047 32.88153457641602 85.28126525878906 38.30183029174805 85.28126525878906 43.89062881469727 C 85.28126525878906 49.47942733764648 84.18724822998047 54.89972305297852 82.02960968017578 60.00096130371094 C 79.94503784179688 64.92942810058594 76.96027374267578 69.35617828369141 73.15822601318359 73.15821838378906 C 69.35618591308594 76.96026611328125 64.92943572998047 79.94503021240234 60.00096893310547 82.02960205078125 C 54.89973068237305 84.18724060058594 49.47943496704102 85.28125762939453 43.8906364440918 85.28125762939453 Z" stroke="none"/>
        <path d="M 43.8906364440918 4.999992370605469 C 38.63823699951172 4.999992370605469 33.54560470581055 6.027565002441406 28.75418472290039 8.054161071777344 C 24.12371826171875 10.0126953125 19.96407318115234 12.81754302978516 16.39080047607422 16.39079284667969 C 12.81755065917969 19.96406555175781 10.01270294189453 24.12371063232422 8.054168701171875 28.75417709350586 C 6.027572631835938 33.54559707641602 5 38.63822937011719 5 43.89062881469727 C 5 49.14302825927734 6.027572631835938 54.23566055297852 8.054168701171875 59.02707672119141 C 10.01270294189453 63.65754699707031 12.81755065917969 67.81719970703125 16.39080047607422 71.39046478271484 C 19.96407318115234 74.96371459960938 24.12371826171875 77.76856231689453 28.75418472290039 79.72709655761719 C 33.54560470581055 81.75369262695312 38.63823699951172 82.78126525878906 43.8906364440918 82.78126525878906 C 49.14303588867188 82.78126525878906 54.23566818237305 81.75369262695312 59.02708435058594 79.72709655761719 C 63.65755462646484 77.76856231689453 67.81719970703125 74.96371459960938 71.39047241210938 71.39046478271484 C 74.96372222900391 67.81719970703125 77.76856994628906 63.65754699707031 79.72710418701172 59.02707672119141 C 81.75370025634766 54.23566055297852 82.78127288818359 49.14302825927734 82.78127288818359 43.89062881469727 C 82.78127288818359 38.63822937011719 81.75370025634766 33.54559707641602 79.72710418701172 28.75417709350586 C 77.76856994628906 24.12371063232422 74.96372222900391 19.96406555175781 71.39047241210938 16.39079284667969 C 67.81719970703125 12.81754302978516 63.65755462646484 10.0126953125 59.02708435058594 8.054161071777344 C 54.23566818237305 6.027565002441406 49.14303588867188 4.999992370605469 43.8906364440918 4.999992370605469 M 43.8906364440918 -7.62939453125e-06 C 68.13075256347656 -7.62939453125e-06 87.78127288818359 19.6505126953125 87.78127288818359 43.89062881469727 C 87.78127288818359 68.13074493408203 68.13075256347656 87.78126525878906 43.8906364440918 87.78126525878906 C 19.65052032470703 87.78126525878906 0 68.13074493408203 0 43.89062881469727 C 0 19.6505126953125 19.65052032470703 -7.62939453125e-06 43.8906364440918 -7.62939453125e-06 Z" stroke="none" fill="#fff"/>
      </g>
    </g>
    <g id="layer2" transform="translate(1108.521 1822.471)">
      <path id="path5038" d="M34.506,6.055,30.181.794,25.856,6.055h2.595v1.3c0,8.821-9.031,15.922-24.218,15.922,9.294,0,27.678,0,27.678-15.922v-1.3Z" transform="translate(8.405 0.6)" fill="#b4d305"/>
      <path id="path5045" d="M15.173.794,10.848,6.054h1.73l3.46-4.208Z" transform="translate(23.413 0.6)" fill="#f8f8f8"/>
      <path id="path5056" d="M28.451,2.117V4.353c0,8.821-9.031,15.922-24.218,15.922.713,0,1.561-.011,2.368-.019,14.794-.2,23.579-7.209,23.579-15.9V2.963C30.181,2.323,29.526,2.117,28.451,2.117Z" transform="translate(8.405 3.602)" fill="#f8f8f8"/>
      <path id="path5064" d="M15.059,6.329a5.331,5.331,0,0,1,5.162-1.383A5.346,5.346,0,0,1,13.675,11.5,5.361,5.361,0,0,1,15.059,6.329Z" transform="translate(29.417 9.605)" fill="#b4d305"/>
      <path id="path5066" d="M18.826,4.762A5.35,5.35,0,0,0,13.675,11.5a5.317,5.317,0,0,0,2.257.1,5.3,5.3,0,0,1-.527-.1A5.336,5.336,0,0,1,19.7,4.842,5.332,5.332,0,0,0,18.826,4.762Z" transform="translate(29.417 9.605)" fill="#f8f8f8"/>
      <path id="path5068" d="M18.633,4.762a5.323,5.323,0,0,0-1.284.166c.032.008.064.01.1.019a5.339,5.339,0,0,1-3.867,6.571,5.341,5.341,0,0,0,6.45-6.571,5.328,5.328,0,0,0-1.4-.184Z" transform="translate(29.609 9.605)" fill="#94ac04"/>
      <path id="path5073" d="M11.354,11.357a5.331,5.331,0,0,1,5.162-1.383,5.346,5.346,0,0,1-6.546,6.552,5.361,5.361,0,0,1,1.383-5.169Z" transform="translate(21.012 21.012)" fill="#b4d305"/>
      <path id="path5078" d="M15.122,9.789a5.35,5.35,0,0,0-5.151,6.737,5.317,5.317,0,0,0,2.257.1,5.275,5.275,0,0,1-.527-.1,5.336,5.336,0,0,1,4.294-6.658,5.332,5.332,0,0,0-.873-.079Z" transform="translate(21.012 21.011)" fill="#f8f8f8"/>
      <path id="path5080" d="M14.929,9.789a5.323,5.323,0,0,0-1.284.166c.032.008.064.01.1.019a5.339,5.339,0,0,1-3.867,6.571,5.341,5.341,0,0,0,6.45-6.571,5.328,5.328,0,0,0-1.4-.184Z" transform="translate(21.205 21.011)" fill="#94ac04"/>
      <path id="path5085" d="M15.059,11.621a5.331,5.331,0,0,1,5.162-1.383,5.346,5.346,0,0,1-6.546,6.552A5.361,5.361,0,0,1,15.059,11.621Z" transform="translate(29.417 21.612)" fill="#b4d305"/>
      <path id="path5087" d="M18.826,10.054a5.35,5.35,0,0,0-5.151,6.737,5.317,5.317,0,0,0,2.257.1,5.265,5.265,0,0,1-.527-.1A5.336,5.336,0,0,1,19.7,10.133a5.336,5.336,0,0,0-.873-.079Z" transform="translate(29.416 21.611)" fill="#f8f8f8"/>
      <path id="path5089" d="M18.633,10.054a5.324,5.324,0,0,0-1.284.166c.032.008.064.01.1.019a5.339,5.339,0,0,1-3.867,6.571,5.341,5.341,0,0,0,6.45-6.571,5.329,5.329,0,0,0-1.4-.184Z" transform="translate(29.609 21.611)" fill="#94ac04"/>
      <path id="path5102" d="M23.5,17.705H11.687l3.46-3.46a3.452,3.452,0,0,1,4.893,0Z" transform="translate(25.318 28.816)" fill="#ffc6a0"/>
      <path id="path5104" d="M17.593,13.229a3.449,3.449,0,0,0-2.446,1.017l-3.46,3.46h2.007l3.46-3.46a3.431,3.431,0,0,1,1.443-.851,3.451,3.451,0,0,0-1-.166Z" transform="translate(25.318 28.816)" fill="#f8f8f8"/>
      <path id="path5107" d="M14.53,13.229a3.441,3.441,0,0,0-1.493.355,3.449,3.449,0,0,1,.953.662l3.46,3.46h2.987l-3.46-3.46a3.449,3.449,0,0,0-2.446-1.017Z" transform="translate(28.38 28.816)" fill="#ffaf7a"/>
      <path id="path5112" d="M19.795,17.705H7.983l3.46-3.46a3.452,3.452,0,0,1,4.893,0Z" transform="translate(16.913 28.816)" fill="#ffc6a0"/>
      <path id="path5118" d="M13.889,13.229a3.449,3.449,0,0,0-2.446,1.017l-3.46,3.46H9.99l3.46-3.46a3.431,3.431,0,0,1,1.443-.851,3.451,3.451,0,0,0-1-.166Z" transform="translate(16.913 28.816)" fill="#f8f8f8"/>
      <path id="path5121" d="M10.826,13.229a3.441,3.441,0,0,0-1.493.355,3.449,3.449,0,0,1,.953.662l3.46,3.46h2.987l-3.46-3.46a3.449,3.449,0,0,0-2.446-1.017Z" transform="translate(19.976 28.816)" fill="#ffaf7a"/>
      <path id="path5125" d="M16.724,8.711a5.331,5.331,0,0,0-5.162-1.383,5.346,5.346,0,0,0,6.546,6.552A5.361,5.361,0,0,0,16.724,8.711Z" transform="translate(24.622 15.008)" fill="#b4d305"/>
      <path id="path5128" d="M12.957,7.144a5.328,5.328,0,0,0-1.4.184,5.336,5.336,0,0,0,6.022,6.656,5.333,5.333,0,0,1-4.293-6.656,5.306,5.306,0,0,1,.524-.1,5.3,5.3,0,0,0-.858-.079Z" transform="translate(24.622 15.008)" fill="#f8f8f8"/>
      <path id="path5130" d="M12.766,7.144a5.33,5.33,0,0,0-1.3.166,5.341,5.341,0,0,1,3.857,6.57c-.031.008-.063.011-.095.019a5.32,5.32,0,0,0,2.689-.019,5.348,5.348,0,0,0-5.151-6.735Z" transform="translate(24.813 15.008)" fill="#94ac04"/>
      <path id="path5135" d="M13.017,11.357A5.331,5.331,0,0,0,7.854,9.973,5.346,5.346,0,0,0,14.4,16.526,5.361,5.361,0,0,0,13.017,11.357Z" transform="translate(16.209 21.012)" fill="#b4d305"/>
      <path id="path5137" d="M9.25,9.79a5.328,5.328,0,0,0-1.4.184,5.336,5.336,0,0,0,6.022,6.656A5.333,5.333,0,0,1,9.584,9.974a5.308,5.308,0,0,1,.524-.1A5.3,5.3,0,0,0,9.25,9.79Z" transform="translate(16.209 21.012)" fill="#f8f8f8"/>
      <path id="path5139" d="M9.058,9.79a5.33,5.33,0,0,0-1.3.166,5.341,5.341,0,0,1,3.857,6.57c-.031.008-.063.011-.095.019a5.319,5.319,0,0,0,2.689-.019A5.348,5.348,0,0,0,9.058,9.79Z" transform="translate(16.401 21.012)" fill="#94ac04"/>
      <path id="path5143" d="M9.316,11.357A5.331,5.331,0,0,0,4.154,9.973,5.346,5.346,0,0,0,10.7,16.526,5.361,5.361,0,0,0,9.316,11.357Z" transform="translate(7.813 21.012)" fill="#b4d305"/>
      <path id="path5145" d="M5.549,9.79a5.328,5.328,0,0,0-1.4.184,5.336,5.336,0,0,0,6.022,6.656A5.333,5.333,0,0,1,5.883,9.974a5.308,5.308,0,0,1,.524-.1,5.305,5.305,0,0,0-.858-.079Z" transform="translate(7.812 21.012)" fill="#f8f8f8"/>
      <path id="path5147" d="M5.357,9.79a5.33,5.33,0,0,0-1.3.166,5.329,5.329,0,0,1,2.473,1.4,5.361,5.361,0,0,1,1.384,5.169c-.031.008-.063.011-.095.019a5.319,5.319,0,0,0,2.689-.019A5.348,5.348,0,0,0,5.357,9.79Z" transform="translate(8.004 21.012)" fill="#94ac04"/>
      <path id="path5152" d="M16.091,17.705H4.279l3.46-3.46a3.452,3.452,0,0,1,4.893,0Z" transform="translate(8.508 28.816)" fill="#ffc6a0"/>
      <path id="path5154" d="M10.185,13.229a3.449,3.449,0,0,0-2.446,1.017l-3.46,3.46H6.286l3.46-3.46a3.431,3.431,0,0,1,1.443-.851,3.451,3.451,0,0,0-1-.166Z" transform="translate(8.508 28.816)" fill="#f8f8f8"/>
      <path id="path5157" d="M7.122,13.229a3.441,3.441,0,0,0-1.493.355,3.449,3.449,0,0,1,.953.662l3.46,3.46h2.987l-3.46-3.46a3.449,3.449,0,0,0-2.446-1.017Z" transform="translate(11.571 28.816)" fill="#ffaf7a"/>
      <path id="path5167" d="M1.058,36.765V6.492a1.73,1.73,0,1,1,3.46,0V36.765Z" transform="translate(1.201 9.605)" fill="#ffc6a0"/>
      <path id="path5169" d="M49.23,14.554l1.73,5.19H.794l.908-5.19c12.511.028,31.094-.015,47.528,0Z" transform="translate(0.6 31.816)" fill="#e4eff8"/>
      <path id="path5171" d="M1.7,14.552l-.909,5.19h1.73l.909-5.19c-.471,0-1.274,0-1.73,0Z" transform="translate(0.6 31.818)" fill="#f8f8f8"/>
      <path id="path5174" d="M14.817,14.552l1.73,5.19h2.595l-1.73-5.19H14.817Z" transform="translate(32.419 31.818)" fill="#c4dcf0"/>
      <path id="path5176" d="M2.788,4.762a1.726,1.726,0,0,0-1.73,1.73V36.765h1.73V6.492A1.721,1.721,0,0,1,3.653,5a1.715,1.715,0,0,0-.865-.238Z" transform="translate(1.201 9.605)" fill="#f8f8f8"/>
      <path id="path9096" d="M38.564.529a.867.867,0,0,0-.645.313L33.6,6.026a.865.865,0,0,0,.664,1.424h1.732v.505c0,4.081-2.071,7.811-6.041,10.56s-9.857,4.5-17.315,4.5a.856.856,0,0,0-.862.872.842.842,0,0,0,.862.858c4.647,0,11.649.026,17.609-2.036a17.083,17.083,0,0,0,7.72-4.987,14.683,14.683,0,0,0,3.218-9.762V7.451h1.73a.865.865,0,0,0,.664-1.424L39.253.842A.864.864,0,0,0,38.564.529Zm.025,2.216,2.477,2.975h-.753a.864.864,0,0,0-.862.862V7.956a12.98,12.98,0,0,1-2.816,8.651,15.378,15.378,0,0,1-6.952,4.463c-.7.243-.9.289-1.424.441a20.417,20.417,0,0,0,2.674-1.578c4.342-3.007,6.788-7.238,6.788-11.977V6.582a.864.864,0,0,0-.862-.862h-.753ZM1.394,16.1V46.539l-.851,4.87a.865.865,0,0,0,.848,1.015H51.556a.865.865,0,0,0,.824-1.137L50.65,46.1a.865.865,0,0,0-.818-.595h-.811l-3.053-3.051a4.324,4.324,0,0,0-2.2-1.181V39.405a6.212,6.212,0,0,0,6.71-7.778.87.87,0,0,0-.61-.613,6.216,6.216,0,0,0-6.007,1.61c-.034.034-.06.072-.093.107V22.107a6.212,6.212,0,0,0,6.71-7.778.87.87,0,0,0-.61-.613,6.225,6.225,0,0,0-7.83,5.84v3.657c-.032-.033-.057-.071-.09-.1a6.216,6.216,0,0,0-6.007-1.61.87.87,0,0,0-.61.613,6.212,6.212,0,0,0,6.707,7.778V41.274a4.322,4.322,0,0,0-2.191,1.179l-3,3-3-3a4.318,4.318,0,0,0-2.189-1.179V38.542a6.214,6.214,0,0,0,6.707-7.779.87.87,0,0,0-.61-.613A6.194,6.194,0,0,0,30.8,33a6.206,6.206,0,0,0-6.963-2.852.87.87,0,0,0-.61.613,6.214,6.214,0,0,0,6.71,7.779v2.73a4.319,4.319,0,0,0-2.2,1.181l-3,2.993-3-2.993a4.312,4.312,0,0,0-2.2-1.186v-5a6.106,6.106,0,0,0-1.819-4.514,6.211,6.211,0,0,0-6.007-1.61.872.872,0,0,0-.612.613,6.215,6.215,0,0,0,6.708,7.779v2.728a4.312,4.312,0,0,0-2.189,1.184L12.584,45.5c-1.837,0-4.292,0-6,0V42.046h.865a.865.865,0,1,0,0-1.73H6.583v-3.46h1.73a.865.865,0,1,0,0-1.73H6.583v-3.46h.865a.865.865,0,1,0,0-1.73H6.583v-3.46h1.73a.865.865,0,1,0,0-1.73H6.583v-3.46h.865a.865.865,0,1,0,0-1.73H6.583V16.1a2.595,2.595,0,0,0-5.19,0Zm2.595-.863a.858.858,0,0,1,.865.863V45.5H3.124V16.1A.858.858,0,0,1,3.989,15.233Zm44.93.045a4.485,4.485,0,0,1-5.1,5.095,4.48,4.48,0,0,1,4.532-5.137,4.77,4.77,0,0,1,.568.042Zm-8.185,9.05a4.511,4.511,0,0,1,1.309,3.221v.064a4.61,4.61,0,0,1-.042.544,4.485,4.485,0,0,1-5.1-5.095,4.679,4.679,0,0,1,.568-.042,4.515,4.515,0,0,1,3.265,1.308ZM16.516,32.977a4.515,4.515,0,0,1,1.267,3.828,4.485,4.485,0,0,1-5.1-5.095,4.689,4.689,0,0,1,.568-.042,4.516,4.516,0,0,1,3.265,1.309Zm12.109,0a4.515,4.515,0,0,1,1.267,3.828,4.485,4.485,0,0,1-5.1-5.095,4.689,4.689,0,0,1,.568-.042A4.516,4.516,0,0,1,28.625,32.979Zm8.185-1.267a4.485,4.485,0,0,1-5.1,5.095,4.482,4.482,0,0,1,4.532-5.137,4.765,4.765,0,0,1,.568.042Zm12.109.865a4.485,4.485,0,0,1-5.1,5.095,4.48,4.48,0,0,1,4.532-5.137A4.764,4.764,0,0,1,48.919,32.577Zm-6.85,10.477a.848.848,0,0,0,1.679,0,2.608,2.608,0,0,1,.995.618L46.576,45.5H39.244l1.828-1.831A2.613,2.613,0,0,1,42.069,43.054Zm-24.23,0a.865.865,0,0,0,1.7,0,2.614,2.614,0,0,1,.985.615L22.358,45.5h-7.33l1.828-1.831A2.61,2.61,0,0,1,17.839,43.057Zm13.812,0a2.606,2.606,0,0,1,.987.615L34.465,45.5c-2.411,0-4.884,0-7.33,0l1.831-1.831a2.617,2.617,0,0,1,.987-.615.865.865,0,0,0,1.7,0Zm17.555,4.176,1.155,3.461H2.426l.6-3.46C18.784,47.251,35,47.224,49.206,47.233Z" transform="translate(0 0)" fill="#333"/>
    </g>
  </g>
</svg>
