<svg xmlns="http://www.w3.org/2000/svg" xmlns:xlink="http://www.w3.org/1999/xlink" width="105.781" height="105.781" viewBox="0 0 105.781 105.781">
  <defs>
    <filter id="Trazado_986931" x="0" y="0" width="105.781" height="105.781" filterUnits="userSpaceOnUse">
      <feOffset dy="3" input="SourceAlpha"/>
      <feGaussianBlur stdDeviation="3" result="blur"/>
      <feFlood flood-opacity="0.161"/>
      <feComposite operator="in" in2="blur"/>
      <feComposite in="SourceGraphic"/>
    </filter>
  </defs>
  <g id="Grupo_1158512" data-name="Grupo 1158512" transform="translate(-1038.051 -2374)">
    <g transform="matrix(1, 0, 0, 1, 1038.05, 2374)" filter="url(#Trazado_986931)">
      <g id="Trazado_986931-2" data-name="Trazado 986931" transform="translate(9 6)" fill="#f3d02c">
        <path d="M 43.8906364440918 85.28125762939453 C 38.30183792114258 85.28125762939453 32.88154220581055 84.18724060058594 27.78030395507812 82.02960205078125 C 22.85183715820312 79.94503021240234 18.42508888244629 76.96026611328125 14.62304973602295 73.15821838378906 C 10.82099628448486 69.35617828369141 7.836236476898193 64.92942810058594 5.751663208007812 60.00096130371094 C 3.59402322769165 54.89972305297852 2.500009775161743 49.47942733764648 2.500009775161743 43.89062881469727 C 2.500009775161743 38.30183029174805 3.59402322769165 32.88153457641602 5.751663208007812 27.78029632568359 C 7.836236476898193 22.85182952880859 10.82099628448486 18.42508125305176 14.62304973602295 14.62304210662842 C 18.42508888244629 10.82098865509033 22.85183715820312 7.836228847503662 27.78030395507812 5.751655578613281 C 32.88154220581055 3.594015598297119 38.30183792114258 2.500002145767212 43.8906364440918 2.500002145767212 C 49.47943496704102 2.500002145767212 54.89973068237305 3.594015598297119 60.00096893310547 5.751655578613281 C 64.92943572998047 7.836228847503662 69.35618591308594 10.82098865509033 73.15822601318359 14.62304210662842 C 76.96027374267578 18.42508125305176 79.94503784179688 22.85182952880859 82.02960968017578 27.78029632568359 C 84.18724822998047 32.88153457641602 85.28126525878906 38.30183029174805 85.28126525878906 43.89062881469727 C 85.28126525878906 49.47942733764648 84.18724822998047 54.89972305297852 82.02960968017578 60.00096130371094 C 79.94503784179688 64.92942810058594 76.96027374267578 69.35617828369141 73.15822601318359 73.15821838378906 C 69.35618591308594 76.96026611328125 64.92943572998047 79.94503021240234 60.00096893310547 82.02960205078125 C 54.89973068237305 84.18724060058594 49.47943496704102 85.28125762939453 43.8906364440918 85.28125762939453 Z" stroke="none"/>
        <path d="M 43.8906364440918 4.999992370605469 C 38.63823699951172 4.999992370605469 33.54560470581055 6.027565002441406 28.75418472290039 8.054161071777344 C 24.12371826171875 10.0126953125 19.96407318115234 12.81754302978516 16.39080047607422 16.39079284667969 C 12.81755065917969 19.96406555175781 10.01270294189453 24.12371063232422 8.054168701171875 28.75417709350586 C 6.027572631835938 33.54559707641602 5 38.63822937011719 5 43.89062881469727 C 5 49.14302825927734 6.027572631835938 54.23566055297852 8.054168701171875 59.02707672119141 C 10.01270294189453 63.65754699707031 12.81755065917969 67.81719970703125 16.39080047607422 71.39046478271484 C 19.96407318115234 74.96371459960938 24.12371826171875 77.76856231689453 28.75418472290039 79.72709655761719 C 33.54560470581055 81.75369262695312 38.63823699951172 82.78126525878906 43.8906364440918 82.78126525878906 C 49.14303588867188 82.78126525878906 54.23566818237305 81.75369262695312 59.02708435058594 79.72709655761719 C 63.65755462646484 77.76856231689453 67.81719970703125 74.96371459960938 71.39047241210938 71.39046478271484 C 74.96372222900391 67.81719970703125 77.76856994628906 63.65754699707031 79.72710418701172 59.02707672119141 C 81.75370025634766 54.23566055297852 82.78127288818359 49.14302825927734 82.78127288818359 43.89062881469727 C 82.78127288818359 38.63822937011719 81.75370025634766 33.54559707641602 79.72710418701172 28.75417709350586 C 77.76856994628906 24.12371063232422 74.96372222900391 19.96406555175781 71.39047241210938 16.39079284667969 C 67.81719970703125 12.81754302978516 63.65755462646484 10.0126953125 59.02708435058594 8.054161071777344 C 54.23566818237305 6.027565002441406 49.14303588867188 4.999992370605469 43.8906364440918 4.999992370605469 M 43.8906364440918 -7.62939453125e-06 C 68.13075256347656 -7.62939453125e-06 87.78127288818359 19.6505126953125 87.78127288818359 43.89062881469727 C 87.78127288818359 68.13074493408203 68.13075256347656 87.78126525878906 43.8906364440918 87.78126525878906 C 19.65052032470703 87.78126525878906 0 68.13074493408203 0 43.89062881469727 C 0 19.6505126953125 19.65052032470703 -7.62939453125e-06 43.8906364440918 -7.62939453125e-06 Z" stroke="none" fill="#fff"/>
      </g>
    </g>
    <g id="Page-1" transform="translate(1066.643 2399.591)">
      <g id="_046---Give-Crops" data-name="046---Give-Crops" transform="translate(0 0)">
        <g id="Grupo_1158511" data-name="Grupo 1158511" transform="translate(0.814 2.441)">
          <path id="Shape" d="M8.323,35.627V52.713A1.627,1.627,0,0,1,6.7,54.341H2.627A1.632,1.632,0,0,1,1,52.713V35.627A1.632,1.632,0,0,1,2.627,34H6.7A1.632,1.632,0,0,1,8.323,35.627Z" transform="translate(-1 -8.778)" fill="#02a9f4"/>
          <path id="Shape-2" data-name="Shape" d="M7.441,34H5a1.632,1.632,0,0,1,1.627,1.627V52.713A1.627,1.627,0,0,1,5,54.341H7.441a1.627,1.627,0,0,0,1.627-1.627V35.627A1.632,1.632,0,0,0,7.441,34Z" transform="translate(-1.746 -8.778)" fill="#0377bc"/>
          <path id="Shape-3" data-name="Shape" d="M48.743,43.786,33.5,53.07a5.7,5.7,0,0,1-2.962.83H9.73c.314-.536.22.705.22-17.9h2.278a7.47,7.47,0,0,1,4.638,1.627A7.452,7.452,0,0,0,21.5,39.254h4.255c3.118,0,5.263,3.548,3.116,5.7h1.912c.758,0-.142.22,16.093-5.191a2.242,2.242,0,0,1,2.49.781v.008a2.221,2.221,0,0,1-.626,3.238Z" transform="translate(-2.627 -9.151)" fill="#ffe0b2"/>
          <path id="Shape-4" data-name="Shape" d="M29.546,45.7a14.662,14.662,0,0,0,2.488-.056C34.075,43.5,31.984,40,28.871,40H26.43C29.593,40,31.658,43.584,29.546,45.7Z" transform="translate(-5.74 -9.896)" fill="#dfc49c"/>
          <path id="Shape-5" data-name="Shape" d="M53.576,41.384v-.008a2.242,2.242,0,0,0-2.49-.781l-.609.2a2.225,2.225,0,0,1,.658.578v.008a2.221,2.221,0,0,1-.626,3.238L35.262,53.905a5.7,5.7,0,0,1-2.962.83c2.434,0,3.731.188,5.4-.83L52.95,44.622a2.221,2.221,0,0,0,.626-3.238Z" transform="translate(-6.834 -9.986)" fill="#dfc49c"/>
          <path id="Shape-6" data-name="Shape" d="M46.533,39.729c-14.655,4.885-13.769,4.662-14.507,4.662H30.114c2.152-2.152-.007-5.7-3.116-5.7H22.743A7.452,7.452,0,0,1,18.1,37.068a7.266,7.266,0,0,0-1.725-1.025,5.7,5.7,0,0,1,5.9-1,5.686,5.686,0,0,1,9.194.643.008.008,0,0,1,.008.008,5.678,5.678,0,0,1,7.672.976A5.686,5.686,0,0,1,46.533,39.729Z" transform="translate(-3.867 -8.591)" fill="sienna"/>
          <path id="Shape-7" data-name="Shape" d="M44.439,37a5.7,5.7,0,0,0-1.238.142,5.665,5.665,0,0,1,4.037,3.336L33.764,44.965a3.186,3.186,0,0,1-.457.115c-.017.018-.029.038-.047.056h1.912a3.2,3.2,0,0,0,1.033-.171l13.474-4.491A5.673,5.673,0,0,0,44.439,37Z" transform="translate(-7.013 -9.337)" fill="#783e22"/>
          <path id="Shape-8" data-name="Shape" d="M41.509,3.814a4.056,4.056,0,0,1-4.068,4.068H35V7.068A4.068,4.068,0,0,1,39.068,3H40.7A.814.814,0,0,1,41.509,3.814Z" transform="translate(-7.337 -3)" fill="#60a917"/>
          <path id="Shape-9" data-name="Shape" d="M40.7,3H39.068a4.113,4.113,0,0,0-.543.055.814.814,0,0,1,.543.759A4.056,4.056,0,0,1,35,7.882h2.441a4.056,4.056,0,0,0,4.068-4.068A.814.814,0,0,0,40.7,3Z" transform="translate(-7.337 -3)" fill="#549414"/>
          <path id="Shape-10" data-name="Shape" d="M33.509,7.068v.814H31.068A4.056,4.056,0,0,1,27,3.814.814.814,0,0,1,27.814,3h1.627a4.068,4.068,0,0,1,4.068,4.068Z" transform="translate(-5.846 -3)" fill="#60a917"/>
          <path id="Shape-11" data-name="Shape" d="M29.565,3H27.938a.814.814,0,0,0-.27.055,4.058,4.058,0,0,1,3.525,4.014v.814h2.441V7.068A4.068,4.068,0,0,0,29.565,3Z" transform="translate(-5.97 -3)" fill="#549414"/>
          <path id="Shape-12" data-name="Shape" d="M42.323,13.814a4.056,4.056,0,0,1-4.068,4.068H35v-.814A4.068,4.068,0,0,1,39.068,13h2.441A.814.814,0,0,1,42.323,13.814Z" transform="translate(-7.337 -4.864)" fill="#60a917"/>
          <path id="Shape-13" data-name="Shape" d="M41.7,13H39.254a.814.814,0,0,1,.814.814A4.056,4.056,0,0,1,36,17.882h2.441a4.056,4.056,0,0,0,4.068-4.068A.814.814,0,0,0,41.7,13Z" transform="translate(-7.523 -4.864)" fill="#549414"/>
          <path id="Shape-14" data-name="Shape" d="M33.323,17.068v.814H30.068A4.056,4.056,0,0,1,26,13.814.814.814,0,0,1,26.814,13h2.441A4.068,4.068,0,0,1,33.323,17.068Z" transform="translate(-5.659 -4.864)" fill="#60a917"/>
          <path id="Shape-15" data-name="Shape" d="M29.441,13H27a4.068,4.068,0,0,1,4.068,4.068v.814h2.441v-.814A4.068,4.068,0,0,0,29.441,13Z" transform="translate(-5.846 -4.864)" fill="#549414"/>
          <path id="Shape-16" data-name="Shape" d="M43.136,23.814a4.056,4.056,0,0,1-4.068,4.068H35v-.814A4.068,4.068,0,0,1,39.068,23h3.254A.814.814,0,0,1,43.136,23.814Z" transform="translate(-7.337 -6.728)" fill="#60a917"/>
          <path id="Shape-17" data-name="Shape" d="M42.7,23H40.254a.814.814,0,0,1,.814.814A4.056,4.056,0,0,1,37,27.882h2.441a4.056,4.056,0,0,0,4.068-4.068A.814.814,0,0,0,42.7,23Z" transform="translate(-7.71 -6.728)" fill="#549414"/>
          <path id="Shape-18" data-name="Shape" d="M33.136,27.068v.814H29.068A4.056,4.056,0,0,1,25,23.814.814.814,0,0,1,25.814,23h3.254A4.068,4.068,0,0,1,33.136,27.068Z" transform="translate(-5.473 -6.728)" fill="#60a917"/>
          <path id="Shape-19" data-name="Shape" d="M29.441,23H27a4.068,4.068,0,0,1,4.068,4.068v.814h2.441v-.814A4.068,4.068,0,0,0,29.441,23Z" transform="translate(-5.846 -6.728)" fill="#549414"/>
        </g>
        <path id="Shape-20" data-name="Shape" d="M34.1,36.87a5.74,5.74,0,0,1,.678-.57" transform="translate(-6.356 -6.766)" fill="none" stroke="#000" stroke-linecap="round" stroke-linejoin="round" stroke-width="2" fill-rule="evenodd"/>
        <path id="Shape-21" data-name="Shape" d="M44.37,37.51a5.659,5.659,0,0,1,.778,1.212" transform="translate(-8.27 -6.991)" fill="none" stroke="#000" stroke-linecap="round" stroke-linejoin="round" stroke-width="2" fill-rule="evenodd"/>
        <path id="Shape-22" data-name="Shape" d="M23.63,35.511a5.749,5.749,0,0,1,.795.4" transform="translate(-4.404 -6.619)" fill="none" stroke="#000" stroke-linecap="round" stroke-linejoin="round" stroke-width="2" fill-rule="evenodd"/>
        <path id="Shape-23" data-name="Shape" d="M2.441,48.817H6.509A2.429,2.429,0,0,0,8.315,48H28.721a6.509,6.509,0,0,0,3.385-.948l15.247-9.283a3.046,3.046,0,0,0-2.542-5.5l-.923.308a6.476,6.476,0,0,0-7.547-3.01,6.482,6.482,0,0,0-7.05-1.43V24.409h3.254a4.887,4.887,0,0,0,4.882-4.882A1.627,1.627,0,0,0,35.8,17.9H32.545a4.857,4.857,0,0,0-3.254,1.253v-2.88h2.441a4.887,4.887,0,0,0,4.882-4.882,1.627,1.627,0,0,0-1.627-1.627H32.545a4.857,4.857,0,0,0-3.254,1.253V8.136h1.627A4.887,4.887,0,0,0,35.8,3.254a1.627,1.627,0,0,0-1.627-1.627c-1.841,0-3.293-.173-4.882,1.253V.814a.814.814,0,0,0-1.627,0V2.88c-1.627-1.463-3.248-1.253-4.882-1.253a1.627,1.627,0,0,0-1.627,1.627,4.887,4.887,0,0,0,4.882,4.882h1.627v2.88a4.857,4.857,0,0,0-3.254-1.253H21.968a1.627,1.627,0,0,0-1.627,1.627,4.887,4.887,0,0,0,4.882,4.882h2.441v2.88A4.857,4.857,0,0,0,24.409,17.9H21.154a1.627,1.627,0,0,0-1.627,1.627,4.887,4.887,0,0,0,4.882,4.882h3.254v3.061a6.5,6.5,0,0,0-8.676.478,6.537,6.537,0,0,0-5.79,1.017A11.247,11.247,0,0,0,8.8,28.477a2.441,2.441,0,0,0-2.3-1.627H2.441A2.441,2.441,0,0,0,0,29.29V46.376a2.441,2.441,0,0,0,2.441,2.441Zm30.1-29.29H35.8a3.254,3.254,0,0,1-3.254,3.254H29.29A3.254,3.254,0,0,1,32.545,19.527Zm0-8.136h2.441a3.254,3.254,0,0,1-3.254,3.254H29.29A3.254,3.254,0,0,1,32.545,11.391Zm0-8.136h1.627a3.254,3.254,0,0,1-3.254,3.254H29.29A3.254,3.254,0,0,1,32.545,3.254Zm-9.763,0h1.627a3.254,3.254,0,0,1,3.254,3.254H26.036A3.254,3.254,0,0,1,22.781,3.254Zm-.814,8.136h2.441a3.254,3.254,0,0,1,3.254,3.254H25.222A3.254,3.254,0,0,1,21.968,11.391Zm-.814,8.136h3.254a3.254,3.254,0,0,1,3.254,3.254H24.409A3.254,3.254,0,0,1,21.154,19.527Zm-2.233,10.12c.666.271.732.456,1.1.456a.8.8,0,0,0,.554-1.389,4.86,4.86,0,0,1,6.746.689c-.046.041-.1.076-.143.12a.814.814,0,0,0,1.139,1.162,4.894,4.894,0,0,1,7.828,1.4.814.814,0,1,0,1.469-.7c-.063-.132-.141-.255-.212-.382a4.829,4.829,0,0,1,4.909,2.115c-13.962,4.651-12.63,4.312-13.8,4.312,1.017-2.823-1.585-5.7-4.562-5.7H19.69a7.6,7.6,0,0,1-4.789-1.92,4.958,4.958,0,0,1,4.02-.164Zm-4.377,1.906a8.267,8.267,0,0,0,5.146,1.805h4.256c2.163,0,4.029,2.339,2.742,4.068H21.741a8.55,8.55,0,0,0-5.109,1.766.814.814,0,0,0,.908,1.351,6.961,6.961,0,0,1,4.2-1.489c7.912,0,7.692.071,8.523-.213l15.055-5.019a1.421,1.421,0,0,1,1.185,2.56L31.259,45.666a4.882,4.882,0,0,1-2.538.71H8.95V30.1c1.849,0,3.605-.142,5.594,1.449ZM1.627,29.29a.814.814,0,0,1,.814-.814H6.509a.814.814,0,0,1,.814.814V46.376a.814.814,0,0,1-.814.814H2.441a.814.814,0,0,1-.814-.814Z" transform="translate(0 0)"/>
        <path id="Shape-24" data-name="Shape" d="M37.54,41.391a.814.814,0,0,0,1.04-.488.56.56,0,0,1,.325-.325.814.814,0,1,0-.552-1.53,2.178,2.178,0,0,0-1.3,1.3.814.814,0,0,0,.488,1.041Z" transform="translate(-6.897 -7.267)"/>
      </g>
    </g>
  </g>
</svg>
