<svg xmlns="http://www.w3.org/2000/svg" width="87.781" height="87.781" viewBox="0 0 87.781 87.781">
  <g id="Grupo_1158456" data-name="Grupo 1158456" transform="translate(-1052.051 -1022)">
    <g id="Grupo_1106146" data-name="Grupo 1106146" transform="translate(1052.051 1022)">
      <g id="Trazado_874102" data-name="Trazado 874102" fill="#f3d02c">
        <path d="M 43.8906364440918 85.28125762939453 C 38.30183792114258 85.28125762939453 32.88154220581055 84.18724060058594 27.78030395507812 82.02960205078125 C 22.85183715820312 79.94503021240234 18.42508888244629 76.96026611328125 14.62304973602295 73.15821838378906 C 10.82099628448486 69.35617828369141 7.836236476898193 64.92942810058594 5.751663208007812 60.00096130371094 C 3.59402322769165 54.89972305297852 2.500009775161743 49.47942733764648 2.500009775161743 43.89062881469727 C 2.500009775161743 38.30183029174805 3.59402322769165 32.88153457641602 5.751663208007812 27.78029632568359 C 7.836236476898193 22.85182952880859 10.82099628448486 18.42508125305176 14.62304973602295 14.62304210662842 C 18.42508888244629 10.82098865509033 22.85183715820312 7.836228847503662 27.78030395507812 5.751655578613281 C 32.88154220581055 3.594015598297119 38.30183792114258 2.500002145767212 43.8906364440918 2.500002145767212 C 49.47943496704102 2.500002145767212 54.89973068237305 3.594015598297119 60.00096893310547 5.751655578613281 C 64.92943572998047 7.836228847503662 69.35618591308594 10.82098865509033 73.15822601318359 14.62304210662842 C 76.96027374267578 18.42508125305176 79.94503784179688 22.85182952880859 82.02960968017578 27.78029632568359 C 84.18724822998047 32.88153457641602 85.28126525878906 38.30183029174805 85.28126525878906 43.89062881469727 C 85.28126525878906 49.47942733764648 84.18724822998047 54.89972305297852 82.02960968017578 60.00096130371094 C 79.94503784179688 64.92942810058594 76.96027374267578 69.35617828369141 73.15822601318359 73.15821838378906 C 69.35618591308594 76.96026611328125 64.92943572998047 79.94503021240234 60.00096893310547 82.02960205078125 C 54.89973068237305 84.18724060058594 49.47943496704102 85.28125762939453 43.8906364440918 85.28125762939453 Z" stroke="none"/>
        <path d="M 43.8906364440918 4.999992370605469 C 38.63823699951172 4.999992370605469 33.54560470581055 6.027565002441406 28.75418472290039 8.054161071777344 C 24.12371826171875 10.0126953125 19.96407318115234 12.81754302978516 16.39080047607422 16.39079284667969 C 12.81755065917969 19.96406555175781 10.01270294189453 24.12371063232422 8.054168701171875 28.75417709350586 C 6.027572631835938 33.54559707641602 5 38.63822937011719 5 43.89062881469727 C 5 49.14302825927734 6.027572631835938 54.23566055297852 8.054168701171875 59.02707672119141 C 10.01270294189453 63.65754699707031 12.81755065917969 67.81719970703125 16.39080047607422 71.39046478271484 C 19.96407318115234 74.96371459960938 24.12371826171875 77.76856231689453 28.75418472290039 79.72709655761719 C 33.54560470581055 81.75369262695312 38.63823699951172 82.78126525878906 43.8906364440918 82.78126525878906 C 49.14303588867188 82.78126525878906 54.23566818237305 81.75369262695312 59.02708435058594 79.72709655761719 C 63.65755462646484 77.76856231689453 67.81719970703125 74.96371459960938 71.39047241210938 71.39046478271484 C 74.96372222900391 67.81719970703125 77.76856994628906 63.65754699707031 79.72710418701172 59.02707672119141 C 81.75370025634766 54.23566055297852 82.78127288818359 49.14302825927734 82.78127288818359 43.89062881469727 C 82.78127288818359 38.63822937011719 81.75370025634766 33.54559707641602 79.72710418701172 28.75417709350586 C 77.76856994628906 24.12371063232422 74.96372222900391 19.96406555175781 71.39047241210938 16.39079284667969 C 67.81719970703125 12.81754302978516 63.65755462646484 10.0126953125 59.02708435058594 8.054161071777344 C 54.23566818237305 6.027565002441406 49.14303588867188 4.999992370605469 43.8906364440918 4.999992370605469 M 43.8906364440918 -7.62939453125e-06 C 68.13075256347656 -7.62939453125e-06 87.78127288818359 19.6505126953125 87.78127288818359 43.89062881469727 C 87.78127288818359 68.13074493408203 68.13075256347656 87.78126525878906 43.8906364440918 87.78126525878906 C 19.65052032470703 87.78126525878906 0 68.13074493408203 0 43.89062881469727 C 0 19.6505126953125 19.65052032470703 -7.62939453125e-06 43.8906364440918 -7.62939453125e-06 Z" stroke="none" fill="#fff"/>
      </g>
    </g>
    <g id="planta" transform="translate(1031.341 1041.002)">
      <path id="Trazado_988341" data-name="Trazado 988341" d="M51.21,457.507c0-.033,6.037-5.157,20.271-5.157,13.827,0,20.271,5.124,20.271,5.157Z" transform="translate(-6.758 -407.621)" fill="#f6cc90"/>
      <path id="Trazado_988342" data-name="Trazado 988342" d="M232.927,452.351q-1.325,0-2.555.057c12.113.559,17.783,5.069,17.783,5.1H253.2c0-.033-6.444-5.157-20.271-5.157Z" transform="translate(-168.204 -407.622)" fill="#f0c17f"/>
      <path id="Trazado_988343" data-name="Trazado 988343" d="M277.2,15.81a8.578,8.578,0,0,1-6.094,5.608,8.89,8.89,0,0,1-1.339-8.186A8.67,8.67,0,0,1,275.907,7.5,8.844,8.844,0,0,1,277.2,15.81Z" transform="translate(-203.274 -6.76)" fill="#c5e866"/>
      <path id="Trazado_988344" data-name="Trazado 988344" d="M286.045,7.5A7.927,7.927,0,0,0,283.5,8.6a8.854,8.854,0,0,1,.579,7.214,8.525,8.525,0,0,1-3.536,4.517,7.218,7.218,0,0,0,.706,1.09,8.578,8.578,0,0,0,6.094-5.608,8.844,8.844,0,0,0-1.3-8.31Z" transform="translate(-213.412 -6.76)" fill="#b2d94b"/>
      <path id="Trazado_988345" data-name="Trazado 988345" d="M259.226,167.576a12.638,12.638,0,0,1-4.7-.168,13.788,13.788,0,0,1,3.666-12.331,13.408,13.408,0,0,1,12.436-3.822,13.693,13.693,0,0,1-2.445,10.9" transform="translate(-189.729 -136.034)" fill="#9cc042"/>
      <path id="Trazado_988346" data-name="Trazado 988346" d="M283.47,151.257a12.306,12.306,0,0,0-4.347-.2,8.414,8.414,0,0,1,1.084.2,13.692,13.692,0,0,1-2.446,10.9l-8.952,5.42c-.1.014-.2.027-.294.038a13.653,13.653,0,0,0,3.557-.038l8.952-5.42A13.693,13.693,0,0,0,283.47,151.257Z" transform="translate(-202.575 -136.036)" fill="#85aa18"/>
      <path id="Trazado_988347" data-name="Trazado 988347" d="M99.954,260.933a10.441,10.441,0,0,1,3.989,9.224,10.686,10.686,0,0,1-9.877-1.7,10.552,10.552,0,0,1-4.114-9.322A10.632,10.632,0,0,1,99.954,260.933Z" transform="translate(-41.623 -233.021)" fill="#c5e866"/>
      <path id="Trazado_988348" data-name="Trazado 988348" d="M108.477,85.614a13.273,13.273,0,0,0,11.773,5.109,13.793,13.793,0,0,0-2.188-12.679,13.416,13.416,0,0,0-11.9-5.269A13.722,13.722,0,0,0,108.477,85.614Z" transform="translate(-55.661 -65.52)" fill="#9cc042"/>
      <path id="Trazado_988349" data-name="Trazado 988349" d="M307.391,273.337a8.549,8.549,0,0,1-8.221.893,8.881,8.881,0,0,1,3.758-7.389,8.64,8.64,0,0,1,8.329-.968A8.835,8.835,0,0,1,307.391,273.337Z" transform="translate(-230.195 -238.998)" fill="#c5e866"/>
      <path id="Trazado_988350" data-name="Trazado 988350" d="M326.584,265.877a8.471,8.471,0,0,0-4.9-.5,7.124,7.124,0,0,1,1.639.5,8.835,8.835,0,0,1-3.866,7.464,8.638,8.638,0,0,1-3.281,1.4,8.511,8.511,0,0,0,6.544-1.4A8.835,8.835,0,0,0,326.584,265.877Z" transform="translate(-245.522 -239.001)" fill="#b2d94b"/>
      <path id="Trazado_988351" data-name="Trazado 988351" d="M85.118,49.048A22.093,22.093,0,0,0,80.31,46.6a43.086,43.086,0,0,0-14.961-2.612,15.07,15.07,0,0,1,3.52-8,9.256,9.256,0,0,0,8.749-1.047A9.518,9.518,0,0,0,81.8,26.819a.742.742,0,0,0-.415-.611,7.727,7.727,0,0,0-1.723-.542,14.2,14.2,0,0,0,1.806-4.2.742.742,0,0,0-1.439-.36A12.747,12.747,0,0,1,78,25.479a9.464,9.464,0,0,0-5.688,1.754,9.218,9.218,0,0,0-3.1,3.6,12.939,12.939,0,0,1-3.178.012c1.507-2.032,5.434-6.959,9.856-9.531a.742.742,0,0,0-.746-1.282c-4.3,2.5-8.048,6.96-9.853,9.326A13.009,13.009,0,0,1,76.82,15.74a12.436,12.436,0,0,1,3.444.1,12.11,12.11,0,0,1,.161,1.8.742.742,0,0,0,1.483-.026,11.9,11.9,0,0,0-.3-2.582.742.742,0,0,0-.519-.526,12.863,12.863,0,0,0-4.361-.249,14.356,14.356,0,0,0-8.8,4.261c-.258.258-.5.52-.726.784.416-1.282.871-2.669,1.336-4.064A9.3,9.3,0,0,0,74.63,9.292,9.527,9.527,0,0,0,73.2.257.741.741,0,0,0,72.5.01a9.354,9.354,0,0,0-6.7,6.219A9.568,9.568,0,0,0,67.09,14.9c-.432,1.3-.855,2.587-1.245,3.787a13.984,13.984,0,0,0-2.861-6.626A14.367,14.367,0,0,0,54.75,6.792a12.853,12.853,0,0,0-4.36-.27.742.742,0,0,0-.578.462,12.638,12.638,0,0,0-.68,3.263.742.742,0,0,0,1.478.128,12.547,12.547,0,0,1,.445-2.426,12.442,12.442,0,0,1,3.432.3,12.763,12.763,0,0,1,7.33,4.729,12.477,12.477,0,0,1,2.705,8.066,13.932,13.932,0,0,1-.261,2.5,47.24,47.24,0,0,0-7.27-9.845.742.742,0,0,0-1.051,1.047,46.456,46.456,0,0,1,7.163,9.78,12.951,12.951,0,0,1-2.487-.3A12.382,12.382,0,0,1,53.4,19.636a13.076,13.076,0,0,1-2.583-5.517.742.742,0,0,0-1.454.294,14.544,14.544,0,0,0,2.87,6.139,14.105,14.105,0,0,0,11.556,5.455V38.5c-.224-.483-.465-.939-.72-1.372a11.124,11.124,0,0,0-4.279-9.8,11.3,11.3,0,0,0-10.735-1.91A.742.742,0,0,0,47.6,26a11.216,11.216,0,0,0,4.388,10.015,11.02,11.02,0,0,0,6.933,2.406,11.842,11.842,0,0,0,2.986-.38A14.277,14.277,0,0,1,63.728,44a47.414,47.414,0,0,0-10.656,1.314.742.742,0,0,0,.36,1.439,45.961,45.961,0,0,1,10.356-1.271v1.7a.742.742,0,0,0,1.483,0V45.475c8.747.087,14.337,2.228,17.117,3.669H46.977a24.384,24.384,0,0,1,2.781-1.25.742.742,0,0,0-.527-1.386A24.069,24.069,0,0,0,45.29,48.4c-1.58.963-1.58,1.2-1.58,1.489a.742.742,0,0,0,.742.742H84.994C86.122,50.627,85.678,49.443,85.118,49.048Zm-11.962-20.6a7.92,7.92,0,0,1,7.17-1.076,8.077,8.077,0,0,1-3.551,6.352A7.781,7.781,0,0,1,70,34.824a18.206,18.206,0,0,1,5.327-3.4.742.742,0,0,0-.584-1.363,20.146,20.146,0,0,0-4.716,2.8A7.835,7.835,0,0,1,73.155,28.453ZM67.561,32.42c.332,0,.686-.012,1.057-.039a10.059,10.059,0,0,0-.372,2.116,16.448,16.448,0,0,0-2.974,4.392V32.232A13.6,13.6,0,0,0,67.561,32.42ZM67.2,6.713a7.954,7.954,0,0,1,5.139-5.131,8.091,8.091,0,0,1,.891,7.226,7.8,7.8,0,0,1-4.071,4.606c.963-2.846,1.915-5.543,2.6-7.236a.742.742,0,0,0-1.373-.56c-.72,1.766-1.7,4.548-2.686,7.461a7.966,7.966,0,0,1-.5-6.366ZM52.9,34.848a9.855,9.855,0,0,1-3.629-5.639,9.746,9.746,0,0,1-.245-2.547,9.962,9.962,0,0,1,8.844,1.832,9.557,9.557,0,0,1,3.519,5.55c.072.325.124.634.16.922a17.361,17.361,0,0,0-1.48-1.574,17.931,17.931,0,0,0-5.205-3.448.742.742,0,0,0-.538,1.382,16.623,16.623,0,0,1,4.729,3.147,15.95,15.95,0,0,1,1.986,2.24A9.863,9.863,0,0,1,52.9,34.848Z" fill="#060606"/>
    </g>
  </g>
</svg>
