<svg xmlns="http://www.w3.org/2000/svg" width="93.959" height="93.959" viewBox="0 0 93.959 93.959">
  <g id="Grupo_1158384" data-name="Grupo 1158384" transform="translate(-622.333 -309)">
    <g id="Grupo_1158054" data-name="Grupo 1158054" transform="translate(622.333 309)">
      <g id="Grupo_1103990" data-name="Grupo 1103990" transform="translate(0)">
        <g id="Trazado_874102" data-name="Trazado 874102" transform="translate(0)" fill="#f9f7f4">
          <path d="M 46.97949600219727 91.45897674560547 C 40.97370910644531 91.45897674560547 35.14888000488281 90.28328704833984 29.66683959960938 87.96457672119141 C 24.37055397033691 85.72444915771484 19.61348152160645 82.51696014404297 15.52775287628174 78.43122863769531 C 11.44202423095703 74.34550476074219 8.234539031982422 69.58843231201172 5.994410514831543 64.29214477539062 C 3.675695896148682 58.81010437011719 2.500010251998901 52.98527526855469 2.500010251998901 46.97948837280273 C 2.500010251998901 40.97369003295898 3.675695896148682 35.14887237548828 5.994410514831543 29.66683197021484 C 8.234539031982422 24.37054634094238 11.44202423095703 19.61346054077148 15.52775287628174 15.52774524688721 C 19.61348152160645 11.4420166015625 24.37055397033691 8.234531402587891 29.66683959960938 5.994388580322266 C 35.14888000488281 3.67568826675415 40.97370910644531 2.50000262260437 46.97949600219727 2.50000262260437 C 52.98529434204102 2.50000262260437 58.81011199951172 3.67568826675415 64.29215240478516 5.994388580322266 C 69.58843994140625 8.234531402587891 74.34552764892578 11.4420166015625 78.43123626708984 15.52774524688721 C 82.5169677734375 19.61346054077148 85.72445678710938 24.37054634094238 87.964599609375 29.66683197021484 C 90.28329467773438 35.14887237548828 91.458984375 40.97369003295898 91.458984375 46.97948837280273 C 91.458984375 52.98527526855469 90.28329467773438 58.81010437011719 87.964599609375 64.29214477539062 C 85.72445678710938 69.58843231201172 82.5169677734375 74.34550476074219 78.43123626708984 78.43122863769531 C 74.34552764892578 82.51696014404297 69.58843994140625 85.72444915771484 64.29215240478516 87.96457672119141 C 58.81011199951172 90.28328704833984 52.98529434204102 91.45897674560547 46.97949600219727 91.45897674560547 Z" stroke="none"/>
          <path d="M 46.97949600219727 5.000007629394531 C 41.31009674072266 5.000007629394531 35.81294631958008 6.109237670898438 30.64072799682617 8.296905517578125 C 25.64242553710938 10.41100311279297 21.1524658203125 13.43856811523438 17.29550933837891 17.29550170898438 C 13.43857574462891 21.15245819091797 10.4110107421875 25.64241790771484 8.296913146972656 30.64072036743164 C 6.109245300292969 35.81293869018555 5.000015258789062 41.31008911132812 5.000015258789062 46.97948837280273 C 5.000015258789062 52.64888763427734 6.109245300292969 58.14603805541992 8.296913146972656 63.31825256347656 C 10.4110107421875 68.31653594970703 13.43857574462891 72.8065185546875 17.29550933837891 76.6634521484375 C 21.1524658203125 80.52040100097656 25.64242553710938 83.5479736328125 30.64072799682617 85.66207122802734 C 35.81294631958008 87.84973907470703 41.31009674072266 88.95896911621094 46.97949600219727 88.95896911621094 C 52.64889526367188 88.95896911621094 58.14604568481445 87.84973907470703 63.31826019287109 85.66207122802734 C 68.31655883789062 83.5479736328125 72.80653381347656 80.52040100097656 76.66348266601562 76.6634521484375 C 80.52041625976562 72.8065185546875 83.54798126220703 68.31653594970703 85.66207885742188 63.31825256347656 C 87.84974670410156 58.14603805541992 88.95897674560547 52.64888763427734 88.95897674560547 46.97948837280273 C 88.95897674560547 41.31008911132812 87.84974670410156 35.81293869018555 85.66207885742188 30.64072036743164 C 83.54798126220703 25.64241790771484 80.52041625976562 21.15245819091797 76.66348266601562 17.29550170898438 C 72.80653381347656 13.43856811523438 68.31655883789062 10.41100311279297 63.31826019287109 8.296905517578125 C 58.14604568481445 6.109237670898438 52.64889526367188 5.000007629394531 46.97949600219727 5.000007629394531 M 46.97949600219727 7.62939453125e-06 C 72.92554473876953 7.62939453125e-06 93.95897674560547 21.03343963623047 93.95897674560547 46.97948837280273 C 93.95897674560547 72.92552185058594 72.92554473876953 93.95896911621094 46.97949600219727 93.95896911621094 C 21.033447265625 93.95896911621094 1.52587890625e-05 72.92552185058594 1.52587890625e-05 46.97948837280273 C 1.52587890625e-05 21.03343963623047 21.033447265625 7.62939453125e-06 46.97949600219727 7.62939453125e-06 Z" stroke="none" fill="#fff"/>
        </g>
      </g>
    </g>
    <g id="ganado" transform="translate(641.462 328)">
      <g id="Grupo_1158382" data-name="Grupo 1158382" transform="translate(1.87 1.885)">
        <g id="Grupo_1158358" data-name="Grupo 1158358" transform="translate(47.775 42.466)">
          <path id="Trazado_988038" data-name="Trazado 988038" d="M61.308,50.336v10.28H56V50h5.308Z" transform="translate(-56 -50)" fill="#dfb28b"/>
        </g>
        <g id="Grupo_1158359" data-name="Grupo 1158359" transform="translate(38.928 42.466)">
          <path id="Trazado_988039" data-name="Trazado 988039" d="M51.308,50V60.617H46V50h5.308Z" transform="translate(-46 -50)" fill="#dfb28b"/>
        </g>
        <g id="Grupo_1158360" data-name="Grupo 1158360" transform="translate(30.08 42.466)">
          <path id="Trazado_988040" data-name="Trazado 988040" d="M36,50h5.308V60.617H36Z" transform="translate(-36 -50)" fill="#dfb28b"/>
        </g>
        <g id="Grupo_1158361" data-name="Grupo 1158361" transform="translate(21.233 42.466)">
          <path id="Trazado_988041" data-name="Trazado 988041" d="M26,50h5.308V60.617H26Z" transform="translate(-26 -50)" fill="#dfb28b"/>
        </g>
        <g id="Grupo_1158362" data-name="Grupo 1158362" transform="translate(12.386 42.466)">
          <path id="Trazado_988042" data-name="Trazado 988042" d="M16,50h5.308V60.617H16Z" transform="translate(-16 -50)" fill="#dfb28b"/>
        </g>
        <g id="Grupo_1158363" data-name="Grupo 1158363" transform="translate(3.539 42.466)">
          <path id="Trazado_988043" data-name="Trazado 988043" d="M7.769,50h3.539V60.617H6V50Z" transform="translate(-6 -50)" fill="#dfb28b"/>
        </g>
        <g id="Grupo_1158364" data-name="Grupo 1158364" transform="translate(44.236 42.466)">
          <path id="Trazado_988044" data-name="Trazado 988044" d="M55.539,55.308v5.308H52V50h3.539Z" transform="translate(-52 -50)" fill="#d3a06c"/>
        </g>
        <g id="Grupo_1158365" data-name="Grupo 1158365" transform="translate(35.389 42.466)">
          <path id="Trazado_988045" data-name="Trazado 988045" d="M45.539,55.308v5.308H42V50h3.539Z" transform="translate(-42 -50)" fill="#d3a06c"/>
        </g>
        <g id="Grupo_1158366" data-name="Grupo 1158366" transform="translate(26.542 42.466)">
          <path id="Trazado_988046" data-name="Trazado 988046" d="M35.539,55.308v5.308H32V50h3.539Z" transform="translate(-32 -50)" fill="#d3a06c"/>
        </g>
        <g id="Grupo_1158367" data-name="Grupo 1158367" transform="translate(17.694 42.466)">
          <path id="Trazado_988047" data-name="Trazado 988047" d="M25.539,55.308v5.308H22V50h3.539Z" transform="translate(-22 -50)" fill="#d3a06c"/>
        </g>
        <g id="Grupo_1158368" data-name="Grupo 1158368" transform="translate(8.847 42.466)">
          <path id="Trazado_988048" data-name="Trazado 988048" d="M15.539,55.308v5.308H12V50h3.539Z" transform="translate(-12 -50)" fill="#d3a06c"/>
        </g>
        <g id="Grupo_1158369" data-name="Grupo 1158369" transform="translate(0 42.466)">
          <path id="Trazado_988049" data-name="Trazado 988049" d="M5.539,55.308v5.308H2V50H5.539Z" transform="translate(-2 -50)" fill="#d3a06c"/>
        </g>
        <g id="Grupo_1158370" data-name="Grupo 1158370" transform="translate(0)">
          <path id="Trazado_988050" data-name="Trazado 988050" d="M18.164,37.566a5.555,5.555,0,0,1-1.124-1.946l-.717-2.141a4.513,4.513,0,0,0-.92-1.6,2.654,2.654,0,0,0-1.017-5.1h-.1L13.5,19.694H12.236a1.855,1.855,0,0,0-.938.265L4.654,24.118,2,19.694l3.415-7.405A8.967,8.967,0,0,1,7.184,9.75a8.735,8.735,0,0,1,.8-.708,8.961,8.961,0,0,1,3.751-1.734L13.5,2l.779.779a6.4,6.4,0,0,1,1.876,4.53,10.264,10.264,0,0,1,4.963,5.459l3,7.8a4.367,4.367,0,0,1-1.5,2.017l-1.327,1A1.781,1.781,0,0,0,20.579,25v1.769a3.539,3.539,0,0,0,6.37,2.123l.929-1.239a3.554,3.554,0,0,1,1.716-1.239l.938-.31A5.31,5.31,0,0,1,32.08,29.86v.018a5.292,5.292,0,0,0,1.2,3.371l-1.2.6v.672a9.068,9.068,0,0,0,2.654,6.405l7.131-1.1a5.122,5.122,0,0,0,2.053-.787,8.323,8.323,0,0,1,.549,2.982v2.442H32.08a6.406,6.406,0,0,1-3.539-5.724v-.469a4.424,4.424,0,0,0-8.759-.885H19.11A2.608,2.608,0,0,0,18.164,37.566Z" transform="translate(-2 -2)" fill="#cf9e76"/>
        </g>
        <g id="Grupo_1158371" data-name="Grupo 1158371" transform="translate(11.501)">
          <path id="Trazado_988051" data-name="Trazado 988051" d="M25.617,20.57l-3-7.8a10.264,10.264,0,0,0-4.963-5.459,6.4,6.4,0,0,0-1.876-4.53L15,2a12.626,12.626,0,0,1,6.715,1.964,12.477,12.477,0,0,1,4.627,5.273l2.53,5.423a4.424,4.424,0,0,0-2.858,3.6L25.847,19.6a4.459,4.459,0,0,1-.23.973Z" transform="translate(-15 -2)" fill="#b27946"/>
        </g>
        <g id="Grupo_1158372" data-name="Grupo 1158372" transform="translate(2.654)">
          <path id="Trazado_988052" data-name="Trazado 988052" d="M13.847,2,12.078,7.308A8.961,8.961,0,0,0,8.327,9.042a8.735,8.735,0,0,0-.8.708L5,5.539l.991-.787A12.527,12.527,0,0,1,13.821,2Z" transform="translate(-5 -2)" fill="#b27946"/>
        </g>
        <g id="Grupo_1158373" data-name="Grupo 1158373" transform="translate(18.579 5.308)">
          <path id="Trazado_988053" data-name="Trazado 988053" d="M38.633,18.723A7.079,7.079,0,0,0,44.7,22.155H58.389V32.772H54.744a3.528,3.528,0,0,1-3.353-2.424l-.124-.363a3.69,3.69,0,0,0-2.734-2.442h-.009a2.6,2.6,0,0,0-.646-1.071,2.645,2.645,0,0,0-4.371.991H41.924a3.536,3.536,0,0,0-3.495,2.955l-.239,1.469a1.8,1.8,0,0,1-.955,1.292L35.7,33.94a5.292,5.292,0,0,1-1.2-3.371v-.018A5.31,5.31,0,0,0,32.953,26.8l-.938.31A3.554,3.554,0,0,0,30.3,28.349l-.929,1.239A3.538,3.538,0,0,1,23,27.464V25.694a1.781,1.781,0,0,1,.708-1.416l1.327-1a4.367,4.367,0,0,0,1.5-2.017,4.459,4.459,0,0,0,.23-.973l.168-1.336a4.426,4.426,0,0,1,4.388-3.875h.522l1.221-1.628A7.176,7.176,0,0,0,34.5,9.15,1.148,1.148,0,0,1,35.651,8a1.16,1.16,0,0,1,.964.513,8.511,8.511,0,0,1,1.424,4.716v1.849h-.672A3.2,3.2,0,0,0,34.5,16.847a1.782,1.782,0,0,0,1.769,1.769h.159a3.1,3.1,0,0,0,1.8-.566l.009.009Z" transform="translate(-23 -8)" fill="#ccd1d9"/>
        </g>
        <g id="Grupo_1158374" data-name="Grupo 1158374" transform="translate(30.08 12.386)">
          <path id="Trazado_988054" data-name="Trazado 988054" d="M41.308,16l-.274,1.115a3.189,3.189,0,0,1-1.309,1.858,3.1,3.1,0,0,1-1.8.566h-.159A1.782,1.782,0,0,1,36,17.769,3.2,3.2,0,0,1,38.866,16h2.442Z" transform="translate(-36 -16)" fill="#aab2bd"/>
        </g>
        <g id="Grupo_1158375" data-name="Grupo 1158375" transform="translate(17.694 31.85)">
          <path id="Trazado_988055" data-name="Trazado 988055" d="M30.847,42.892a6.406,6.406,0,0,0,3.539,5.724H25.539a2.84,2.84,0,0,0-1.584-2.557L22,45.078V42.424a4.169,4.169,0,0,1,.088-.885,4.423,4.423,0,0,1,8.759.885Z" transform="translate(-22 -38)" fill="#e6e9ed"/>
        </g>
        <g id="Grupo_1158376" data-name="Grupo 1158376" transform="translate(5.308 28.311)">
          <path id="Trazado_988056" data-name="Trazado 988056" d="M11.539,48.155H8V38.627a4.47,4.47,0,0,1,.133-1.088,4.627,4.627,0,0,1,1.575-2.5A4.555,4.555,0,0,1,12.627,34a4.6,4.6,0,0,1,2.707.876,4.7,4.7,0,0,1,.761.69,4.513,4.513,0,0,1,.92,1.6l.717,2.141a5.555,5.555,0,0,0,1.124,1.946,2.706,2.706,0,0,0-1.628,1.831l-.38,1.531h3.539l1.955.982a2.84,2.84,0,0,1,1.584,2.557H11.539Z" transform="translate(-8 -34)" fill="#ffeaa7"/>
        </g>
        <g id="Grupo_1158377" data-name="Grupo 1158377" transform="translate(14.155 35.389)">
          <path id="Trazado_988057" data-name="Trazado 988057" d="M18.38,44.008a2.706,2.706,0,0,1,1.628-1.831A2.608,2.608,0,0,1,20.955,42h.672a4.169,4.169,0,0,0-.088.885v2.654H18Z" transform="translate(-18 -42)" fill="#ff826e"/>
        </g>
        <g id="Grupo_1158378" data-name="Grupo 1158378" transform="translate(6.193 24.772)">
          <path id="Trazado_988058" data-name="Trazado 988058" d="M15.193,30a2.654,2.654,0,0,1,1.017,5.1,4.7,4.7,0,0,0-.761-.69,4.6,4.6,0,0,0-2.707-.876,4.555,4.555,0,0,0-2.92,1.035,2.648,2.648,0,0,1,3.6-3.884A2.621,2.621,0,0,1,15.1,30Z" transform="translate(-9 -30)" fill="#ff826e"/>
        </g>
        <g id="Grupo_1158379" data-name="Grupo 1158379" transform="translate(1.769 31.85)">
          <path id="Trazado_988059" data-name="Trazado 988059" d="M7.672,38a4.47,4.47,0,0,0-.133,1.088v2.451H4l.239-.964A3.406,3.406,0,0,1,7.539,38Z" transform="translate(-4 -38)" fill="#ff826e"/>
        </g>
        <g id="Grupo_1158380" data-name="Grupo 1158380" transform="translate(30.08 24.772)">
          <path id="Trazado_988060" data-name="Trazado 988060" d="M39.928,32.955A3.536,3.536,0,0,1,43.423,30h1.584a2.452,2.452,0,0,0-.159.885v1.23a2.648,2.648,0,0,0,1.186,2.212l1.469.982,1.469-.982a2.648,2.648,0,0,0,1.186-2.212v-1.23a2.4,2.4,0,0,0-.133-.805h.009a3.69,3.69,0,0,1,2.734,2.442l.124.363a3.528,3.528,0,0,0,3.353,2.424h3.645V47.694h-11.5V45.253a8.323,8.323,0,0,0-.549-2.982,5.122,5.122,0,0,1-2.053.787l-7.131,1.1A9.068,9.068,0,0,1,36,37.75v-.672l1.2-.6,1.531-.761a1.8,1.8,0,0,0,.955-1.292Z" transform="translate(-36 -30)" fill="#ecc19c"/>
        </g>
        <g id="Grupo_1158381" data-name="Grupo 1158381" transform="translate(38.928 23.003)">
          <path id="Trazado_988061" data-name="Trazado 988061" d="M51.308,30.654v1.23A2.648,2.648,0,0,1,50.123,34.1l-1.469.982L47.186,34.1A2.648,2.648,0,0,1,46,31.884v-1.23a2.452,2.452,0,0,1,.159-.885,2.643,2.643,0,0,1,5.016.08A2.4,2.4,0,0,1,51.308,30.654Z" transform="translate(-46 -28)" fill="#dfb28b"/>
        </g>
      </g>
      <g id="Grupo_1158383" data-name="Grupo 1158383" transform="translate(0.871 1)">
        <circle id="Elipse_11759" data-name="Elipse 11759" cx="0.885" cy="0.885" r="0.885" transform="translate(37.272 30.08)"/>
        <circle id="Elipse_11760" data-name="Elipse 11760" cx="0.885" cy="0.885" r="0.885" transform="translate(26.656 17.694)"/>
        <circle id="Elipse_11761" data-name="Elipse 11761" cx="0.885" cy="0.885" r="0.885" transform="translate(8.961 10.617)"/>
        <circle id="Elipse_11762" data-name="Elipse 11762" cx="0.885" cy="0.885" r="0.885" transform="translate(21.347 35.389)"/>
        <circle id="Elipse_11763" data-name="Elipse 11763" cx="0.885" cy="0.885" r="0.885" transform="translate(8.961 31.85)"/>
        <path id="Trazado_988062" data-name="Trazado 988062" d="M11,43h1.769v3.539H11Z" transform="translate(-2.039 -5.842)"/>
        <path id="Trazado_988063" data-name="Trazado 988063" d="M33.875,16.925H33.72v1.769h.155a4.065,4.065,0,0,0,1.477-.285,8,8,0,0,0,6.8,3.824H55.838V20.464H42.15a6.224,6.224,0,0,1-5.31-3.006l-.016-.027A4.064,4.064,0,0,0,37.838,15.6l.554-2.214H36.374V12.42a9.359,9.359,0,0,0-1.576-5.2,2.038,2.038,0,0,0-3.733,1.131,6.311,6.311,0,0,1-1.255,3.764l-.957,1.276h-.076a5.262,5.262,0,0,0-1.048.111L25.513,8.748A13.425,13.425,0,0,0,4.96,3.943L3.368,5.216,5.962,9.538A9.657,9.657,0,0,0,4.485,11.8L.871,19.633l3.358,5.6L11.641,20.6a.878.878,0,0,1,.469-.134h.47l.61,5.483a3.539,3.539,0,0,0-.7.307,3.494,3.494,0,0,0-1.769-.483,3.542,3.542,0,0,0-3.539,3.539,3.5,3.5,0,0,0,.53,1.838,5.5,5.5,0,0,0-1.059,1.746,4.269,4.269,0,0,0-3.626,3.2l-.517,2.063H6.293v5.308H.985V55.853H55.838V43.466H45.221V41.906a9.218,9.218,0,0,0-.392-2.646,6.011,6.011,0,0,0,2.161-4.64H45.221A4.249,4.249,0,0,1,41.6,38.841l-6.673,1.026A8.12,8.12,0,0,1,32.835,34.4v-.123l2.244-1.122a2.663,2.663,0,0,0,1.431-1.938l.243-1.462a2.646,2.646,0,0,1,2.619-2.218h.541v1.234a3.533,3.533,0,0,0,1.576,2.944l1.963,1.308,1.963-1.308a3.534,3.534,0,0,0,1.576-2.944V28.19a2.793,2.793,0,0,1,.885,1.265l.124.371a4.418,4.418,0,0,0,4.2,3.024h3.642V31.08H52.2a2.651,2.651,0,0,1-2.518-1.815l-.124-.371A4.581,4.581,0,0,0,46.621,26a3.511,3.511,0,0,0-6.216-.227H39.371a4.409,4.409,0,0,0-4.363,3.7l-.243,1.462a.886.886,0,0,1-.478.646L33.445,32a4.471,4.471,0,0,1-.61-2.257,6.151,6.151,0,0,0-.977-3.335A4.549,4.549,0,0,0,34.6,22.233H32.835a2.794,2.794,0,0,1-1.914,2.654l-1.741.58a4.4,4.4,0,0,0-2.139,1.542l-.929,1.239a2.669,2.669,0,0,1-2.124,1.063,2.611,2.611,0,0,1-1.137-.266L25.5,26.4l-1.251-1.251L21.6,27.794a2.611,2.611,0,0,1-.266-1.137V24.887a.888.888,0,0,1,.354-.708l1.329-1A5.337,5.337,0,0,0,25.1,19.6l.167-1.339a3.544,3.544,0,0,1,3.511-3.1h.961l1.488-1.984a8.013,8.013,0,0,0,.719-1.157L34.6,13.03V13.4a4.057,4.057,0,0,0-3.446,2.244l1.583.792a2.3,2.3,0,0,1,2.072-1.281h1.312l0,.015a2.312,2.312,0,0,1-2.247,1.754Zm7.808,10.617a1.769,1.769,0,1,1,3.539,0v1.234a1.766,1.766,0,0,1-.788,1.472l-.981.654-.981-.655a1.764,1.764,0,0,1-.788-1.471Zm-19.872-15.2a11.1,11.1,0,0,0-.8-1.656L23.46,8.638c.16.28.312.564.45.859l.945,2.025L22.038,12.93Zm.647-5.169L19.982,9.231a11.05,11.05,0,0,0-1.731-1.67L19.9,4.806A11.726,11.726,0,0,1,22.457,7.169ZM10.92,6.442l-.027.009L9.4,3.465a11.669,11.669,0,0,1,2.72-.622Zm5.945-.008a7.213,7.213,0,0,0-1.285-3.44,11.685,11.685,0,0,1,2.793.929Zm-10.8-1.11A11.658,11.658,0,0,1,7.783,4.189L9.222,7.066A9.779,9.779,0,0,0,7.267,8.275L5.68,5.632Zm4.652,22.218A1.751,1.751,0,0,1,11.895,28l.592.533L13.078,28a1.747,1.747,0,0,1,1.178-.462,1.768,1.768,0,0,1,1.141,3.12,5.462,5.462,0,0,0-6.3-.634,1.769,1.769,0,0,1,1.618-2.485Zm-5.94,8.847a2.5,2.5,0,0,1,1.519-1.6c0,.012,0,.026,0,.038v1.566Zm3.286-1.566a3.742,3.742,0,0,1,7.293-1.183l.715,2.145a6.475,6.475,0,0,0,.674,1.407,3.528,3.528,0,0,0-1.2,1.878L14.892,41.7h4.463l1.769.885a1.954,1.954,0,0,1,.869.885H8.063Zm9.1,5.1.108-.429a1.765,1.765,0,0,1,1.414-1.314v1.743Zm12.22,3.539h-5.5A3.719,3.719,0,0,0,21.917,41l-1.468-.733V38.158a3.539,3.539,0,0,1,7.078,0v.467A7.238,7.238,0,0,0,29.378,43.466ZM48.76,54.083H46.99V45.236H48.76Zm-7.078-3.539h3.539v3.539H41.682Zm3.539-1.769H41.682V45.236h3.539Zm-5.308,5.308H38.143V45.236h1.769ZM9.832,48.775H6.293V45.236H9.832ZM6.293,50.544H9.832v3.539H6.293ZM11.6,45.236h1.769v8.847H11.6Zm7.078,3.539H15.141V45.236h3.539Zm-3.539,1.769h3.539v3.539H15.141Zm5.308-5.308h1.769v8.847H20.449Zm7.078,3.539H23.988V45.236h3.539Zm-3.539,1.769h3.539v3.539H23.988ZM29.3,45.236h1.769v8.847H29.3Zm3.539,5.308h3.539v3.539H32.835Zm3.539-1.769H32.835V45.236h3.539ZM2.755,45.236H4.524v8.847H2.755Zm47.775,8.847V50.544h3.539v3.539Zm3.539-5.308H50.529V45.236h3.539ZM21.955,21.768l-1.33,1a2.668,2.668,0,0,0-1.061,2.123v1.769a4.424,4.424,0,0,0,7.962,2.654l.93-1.239a2.633,2.633,0,0,1,1.284-.925l.368-.123a4.4,4.4,0,0,1,.957,2.743,6.214,6.214,0,0,0,.792,3.026l-.792.4V34.4a9.881,9.881,0,0,0,2.913,7.034l.317.317,7.572-1.165a6.078,6.078,0,0,0,1.38-.387,7.472,7.472,0,0,1,.2,1.7v1.562H32.187A5.478,5.478,0,0,1,29.3,38.625v-.467a5.3,5.3,0,0,0-10.307-1.769h-.007a3.646,3.646,0,0,0-.593.05,4.668,4.668,0,0,1-.641-1.215l-.715-2.145a5.472,5.472,0,0,0-.5-1.061,3.537,3.537,0,0,0-1.576-6.175l-.6-5.4a4.751,4.751,0,0,0,4.277-3.24l-1.678-.56a3,3,0,0,1-2.843,2.05h-2a2.653,2.653,0,0,0-1.407.4L4.819,22.775l-1.95-3.25,3.222-6.98a8.012,8.012,0,0,1,5.684-4.484l.5-.1,1.473-4.42a5.484,5.484,0,0,1,1.388,3.653V7.74l.489.244a9.3,9.3,0,0,1,4.53,4.988l2.864,7.448a3.547,3.547,0,0,1-1.069,1.348Zm1.735-4.545-1.013-2.635L25.6,13.125l.471,1.009A5.312,5.312,0,0,0,23.69,17.223Zm9.145-8.877a.278.278,0,0,1,.491-.149,7.586,7.586,0,0,1,1.148,2.889l-1.9-.725A8.052,8.052,0,0,0,32.835,8.346Z" transform="translate(-0.871 -1)"/>
      </g>
    </g>
  </g>
</svg>
