<svg xmlns="http://www.w3.org/2000/svg" width="87.781" height="87.781" viewBox="0 0 87.781 87.781">
  <g id="Grupo_1158480" data-name="Grupo 1158480" transform="translate(-1052 -443)">
    <g id="Grupo_1103990" data-name="Grupo 1103990" transform="translate(1052 443)">
      <g id="Trazado_874102" data-name="Trazado 874102" fill="#f3d02c">
        <path d="M 43.8906364440918 85.28125762939453 C 38.30183792114258 85.28125762939453 32.88154220581055 84.18724060058594 27.78030395507812 82.02960205078125 C 22.85183715820312 79.94503021240234 18.42508888244629 76.96026611328125 14.62304973602295 73.15821838378906 C 10.82099628448486 69.35617828369141 7.836236476898193 64.92942810058594 5.751663208007812 60.00096130371094 C 3.59402322769165 54.89972305297852 2.500009775161743 49.47942733764648 2.500009775161743 43.89062881469727 C 2.500009775161743 38.30183029174805 3.59402322769165 32.88153457641602 5.751663208007812 27.78029632568359 C 7.836236476898193 22.85182952880859 10.82099628448486 18.42508125305176 14.62304973602295 14.62304210662842 C 18.42508888244629 10.82098865509033 22.85183715820312 7.836228847503662 27.78030395507812 5.751655578613281 C 32.88154220581055 3.594015598297119 38.30183792114258 2.500002145767212 43.8906364440918 2.500002145767212 C 49.47943496704102 2.500002145767212 54.89973068237305 3.594015598297119 60.00096893310547 5.751655578613281 C 64.92943572998047 7.836228847503662 69.35618591308594 10.82098865509033 73.15822601318359 14.62304210662842 C 76.96027374267578 18.42508125305176 79.94503784179688 22.85182952880859 82.02960968017578 27.78029632568359 C 84.18724822998047 32.88153457641602 85.28126525878906 38.30183029174805 85.28126525878906 43.89062881469727 C 85.28126525878906 49.47942733764648 84.18724822998047 54.89972305297852 82.02960968017578 60.00096130371094 C 79.94503784179688 64.92942810058594 76.96027374267578 69.35617828369141 73.15822601318359 73.15821838378906 C 69.35618591308594 76.96026611328125 64.92943572998047 79.94503021240234 60.00096893310547 82.02960205078125 C 54.89973068237305 84.18724060058594 49.47943496704102 85.28125762939453 43.8906364440918 85.28125762939453 Z" stroke="none"/>
        <path d="M 43.8906364440918 4.999992370605469 C 38.63823699951172 4.999992370605469 33.54560470581055 6.027565002441406 28.75418472290039 8.054161071777344 C 24.12371826171875 10.0126953125 19.96407318115234 12.81754302978516 16.39080047607422 16.39079284667969 C 12.81755065917969 19.96406555175781 10.01270294189453 24.12371063232422 8.054168701171875 28.75417709350586 C 6.027572631835938 33.54559707641602 5 38.63822937011719 5 43.89062881469727 C 5 49.14302825927734 6.027572631835938 54.23566055297852 8.054168701171875 59.02707672119141 C 10.01270294189453 63.65754699707031 12.81755065917969 67.81719970703125 16.39080047607422 71.39046478271484 C 19.96407318115234 74.96371459960938 24.12371826171875 77.76856231689453 28.75418472290039 79.72709655761719 C 33.54560470581055 81.75369262695312 38.63823699951172 82.78126525878906 43.8906364440918 82.78126525878906 C 49.14303588867188 82.78126525878906 54.23566818237305 81.75369262695312 59.02708435058594 79.72709655761719 C 63.65755462646484 77.76856231689453 67.81719970703125 74.96371459960938 71.39047241210938 71.39046478271484 C 74.96372222900391 67.81719970703125 77.76856994628906 63.65754699707031 79.72710418701172 59.02707672119141 C 81.75370025634766 54.23566055297852 82.78127288818359 49.14302825927734 82.78127288818359 43.89062881469727 C 82.78127288818359 38.63822937011719 81.75370025634766 33.54559707641602 79.72710418701172 28.75417709350586 C 77.76856994628906 24.12371063232422 74.96372222900391 19.96406555175781 71.39047241210938 16.39079284667969 C 67.81719970703125 12.81754302978516 63.65755462646484 10.0126953125 59.02708435058594 8.054161071777344 C 54.23566818237305 6.027565002441406 49.14303588867188 4.999992370605469 43.8906364440918 4.999992370605469 M 43.8906364440918 -7.62939453125e-06 C 68.13075256347656 -7.62939453125e-06 87.78127288818359 19.6505126953125 87.78127288818359 43.89062881469727 C 87.78127288818359 68.13074493408203 68.13075256347656 87.78126525878906 43.8906364440918 87.78126525878906 C 19.65052032470703 87.78126525878906 0 68.13074493408203 0 43.89062881469727 C 0 19.6505126953125 19.65052032470703 -7.62939453125e-06 43.8906364440918 -7.62939453125e-06 Z" stroke="none" fill="#fff"/>
      </g>
    </g>
    <g id="regando-plantas" transform="translate(1070.997 462)">
      <g id="Grupo_1158457" data-name="Grupo 1158457" transform="translate(25.518 15.718)">
        <path id="Trazado_988352" data-name="Trazado 988352" d="M259.485,162.745l6.965.537.529-2.337-1.707-1.741h-5.787l-1.033,1.741Z" transform="translate(-258.452 -159.205)" fill="#f9f6f6" fill-rule="evenodd"/>
      </g>
      <g id="Grupo_1158458" data-name="Grupo 1158458" transform="translate(22.538 14.55)">
        <path id="Trazado_988353" data-name="Trazado 988353" d="M228.263,152.335a.973.973,0,0,0,1.4.837l2.608-1.08v-3.54l-2.608-1.08a.976.976,0,0,0-1.4.84Z" transform="translate(-228.263 -147.384)" fill="#9dc6fb" fill-rule="evenodd"/>
      </g>
      <g id="Grupo_1158459" data-name="Grupo 1158459" transform="translate(22.538 17.654)">
        <path id="Trazado_988354" data-name="Trazado 988354" d="M229.668,179.9a.975.975,0,0,1-1.4-.837v1.6a.973.973,0,0,0,1.4.837l2.608-1.08v-1.6l-.52.216Z" transform="translate(-228.263 -178.821)" fill="#80b4fb" fill-rule="evenodd"/>
      </g>
      <g id="Grupo_1158460" data-name="Grupo 1158460" transform="translate(26.551 15.718)">
        <path id="Trazado_988355" data-name="Trazado 988355" d="M272.987,161.449l-4.075-.308v1.6l6.965.537L274.7,159.2h-1.45l.269.988c.255.935.476,1.332-.532,1.257Z" transform="translate(-268.912 -159.205)" fill="#dddaec" fill-rule="evenodd"/>
      </g>
      <g id="Grupo_1158461" data-name="Grupo 1158461" transform="translate(31.736 7.957)">
        <path id="Trazado_988356" data-name="Trazado 988356" d="M323.821,94.521a1.516,1.516,0,0,0,2.118.756l11.58-5.5a1.516,1.516,0,0,0,.753-2.119L335.6,83.788l-2.208-3.19-6.859,2.365-5.093,3.313.6,2.082,1.178,4.078Z" transform="translate(-321.437 -80.598)" fill="#9dc6fb" fill-rule="evenodd"/>
      </g>
      <g id="Grupo_1158462" data-name="Grupo 1158462" transform="translate(31.106 5.479)">
        <path id="Trazado_988357" data-name="Trazado 988357" d="M315.679,63.653l5.628-2.673,6.324-3.006-1.094-1.581a1.707,1.707,0,0,0-2.121-.756l-4.7,2.23L315.9,59.685a1.7,1.7,0,0,0-.753,2.119Z" transform="translate(-315.048 -55.497)" fill="#f9f6f6" fill-rule="evenodd"/>
      </g>
      <g id="Grupo_1158463" data-name="Grupo 1158463" transform="translate(37.974 5.479)">
        <path id="Trazado_988358" data-name="Trazado 988358" d="M387.12,55.638l-2.5,1.189a1.7,1.7,0,0,1,2.118.753l.912,1.321.182.263,2.5-1.189-1.094-1.581A1.707,1.707,0,0,0,387.12,55.638Z" transform="translate(-384.621 -55.496)" fill="#dddaec" fill-rule="evenodd"/>
      </g>
      <g id="Grupo_1158464" data-name="Grupo 1158464" transform="translate(41.187 7.957)">
        <path id="Trazado_988359" data-name="Trazado 988359" d="M419.664,80.6l-2.5,1.189,2.208,3.19.143.2,2.535,3.663a1.516,1.516,0,0,1-.756,2.119l2.5-1.189a1.516,1.516,0,0,0,.753-2.119l-2.675-3.868Z" transform="translate(-417.162 -80.599)" fill="#80b4fb" fill-rule="evenodd"/>
      </g>
      <g id="Grupo_1158465" data-name="Grupo 1158465" transform="translate(0.743 42.958)">
        <path id="Trazado_988360" data-name="Trazado 988360" d="M8.678,441.983H55.39a1.181,1.181,0,0,0,1.178-1.156v-4.536a1.181,1.181,0,0,0-1.178-1.156H8.678A1.178,1.178,0,0,0,7.5,436.291v4.536A1.179,1.179,0,0,0,8.678,441.983Z" transform="translate(-7.503 -435.135)" fill="#d09080" fill-rule="evenodd"/>
      </g>
      <g id="Grupo_1158466" data-name="Grupo 1158466" transform="translate(7.577 32.525)">
        <path id="Trazado_988361" data-name="Trazado 988361" d="M76.724,336.957l3.434-.347a3.878,3.878,0,0,0,3.4-3.778v-2.838a.529.529,0,0,0-.59-.537l-2.843.285a3.883,3.883,0,0,0-3.4,3.778v3.437Z" transform="translate(-76.724 -329.454)" fill="#a7e9a6" fill-rule="evenodd"/>
      </g>
      <g id="Grupo_1158467" data-name="Grupo 1158467" transform="translate(7.577 32.525)">
        <path id="Trazado_988362" data-name="Trazado 988362" d="M80.158,336.61a3.878,3.878,0,0,0,3.4-3.778v-2.838a.529.529,0,0,0-.59-.537l-.9.09v2.284a3.384,3.384,0,0,1-3.207,3.437l-1,.1-1.145.118v1.472Z" transform="translate(-76.724 -329.454)" fill="#7fdbae" fill-rule="evenodd"/>
      </g>
      <g id="Grupo_1158468" data-name="Grupo 1158468" transform="translate(45.533 42.958)">
        <path id="Trazado_988363" data-name="Trazado 988363" d="M462.362,436.31V440.8a1.182,1.182,0,0,1-1.178,1.178h3.1a1.181,1.181,0,0,0,1.178-1.156v-4.536a1.181,1.181,0,0,0-1.178-1.156h-3.1A1.179,1.179,0,0,1,462.362,436.31Z" transform="translate(-461.184 -435.135)" fill="#ce775f" fill-rule="evenodd"/>
      </g>
      <g id="Grupo_1158469" data-name="Grupo 1158469" transform="translate(0.763 28.716)">
        <path id="Trazado_988364" data-name="Trazado 988364" d="M14.535,298.377,11.1,298.03a3.883,3.883,0,0,1-3.4-3.778v-2.838a.529.529,0,0,1,.59-.537l2.843.285a3.883,3.883,0,0,1,3.4,3.778v3.437Z" transform="translate(-7.701 -290.874)" fill="#a7e9a6" fill-rule="evenodd"/>
      </g>
      <g id="Grupo_1158470" data-name="Grupo 1158470" transform="translate(0.763 28.716)">
        <path id="Trazado_988365" data-name="Trazado 988365" d="M11.1,298.03a3.883,3.883,0,0,1-3.4-3.778v-2.838a.529.529,0,0,1,.59-.537l.9.09v2.284a3.386,3.386,0,0,0,3.207,3.437l1,.1,1.145.115v1.475Z" transform="translate(-7.701 -290.874)" fill="#7fdbae" fill-rule="evenodd"/>
      </g>
      <g id="Grupo_1158471" data-name="Grupo 1158471" transform="translate(25.275 32.525)">
        <path id="Trazado_988366" data-name="Trazado 988366" d="M255.986,336.957l3.436-.347a3.881,3.881,0,0,0,3.4-3.778v-2.838a.531.531,0,0,0-.593-.537l-2.843.285a3.883,3.883,0,0,0-3.4,3.778v3.437Z" transform="translate(-255.986 -329.454)" fill="#a7e9a6" fill-rule="evenodd"/>
      </g>
      <g id="Grupo_1158472" data-name="Grupo 1158472" transform="translate(25.275 32.525)">
        <path id="Trazado_988367" data-name="Trazado 988367" d="M259.423,336.61a3.881,3.881,0,0,0,3.4-3.778v-2.838a.531.531,0,0,0-.593-.537l-.893.09v2.284a3.388,3.388,0,0,1-3.207,3.437l-1,.1-1.147.118v1.472Z" transform="translate(-255.987 -329.454)" fill="#7fdbae" fill-rule="evenodd"/>
      </g>
      <g id="Grupo_1158473" data-name="Grupo 1158473" transform="translate(18.46 28.716)">
        <path id="Trazado_988368" data-name="Trazado 988368" d="M193.8,298.377l-3.434-.347a3.883,3.883,0,0,1-3.4-3.778v-2.838a.529.529,0,0,1,.59-.537l2.843.285a3.88,3.88,0,0,1,3.4,3.778v3.437Z" transform="translate(-186.962 -290.874)" fill="#a7e9a6" fill-rule="evenodd"/>
      </g>
      <g id="Grupo_1158474" data-name="Grupo 1158474" transform="translate(18.46 28.716)">
        <path id="Trazado_988369" data-name="Trazado 988369" d="M190.362,298.03a3.883,3.883,0,0,1-3.4-3.778v-2.838a.529.529,0,0,1,.59-.537l.9.09v2.284a3.388,3.388,0,0,0,3.207,3.437l1,.1,1.145.115v1.475Z" transform="translate(-186.962 -290.874)" fill="#7fdbae" fill-rule="evenodd"/>
      </g>
      <g id="Grupo_1158475" data-name="Grupo 1158475" transform="translate(42.975 32.525)">
        <path id="Trazado_988370" data-name="Trazado 988370" d="M435.276,336.957l3.434-.347a3.881,3.881,0,0,0,3.4-3.778v-2.838a.53.53,0,0,0-.593-.537l-2.843.285a3.88,3.88,0,0,0-3.4,3.778v3.437Z" transform="translate(-435.276 -329.454)" fill="#a7e9a6" fill-rule="evenodd"/>
      </g>
      <g id="Grupo_1158476" data-name="Grupo 1158476" transform="translate(42.975 32.525)">
        <path id="Trazado_988371" data-name="Trazado 988371" d="M438.711,336.61a3.881,3.881,0,0,0,3.4-3.778v-2.838a.53.53,0,0,0-.593-.537l-.893.09v2.284a3.388,3.388,0,0,1-3.207,3.437l-1,.1-1.145.118v1.472Z" transform="translate(-435.277 -329.454)" fill="#7fdbae" fill-rule="evenodd"/>
      </g>
      <g id="Grupo_1158477" data-name="Grupo 1158477" transform="translate(36.158 28.716)">
        <path id="Trazado_988372" data-name="Trazado 988372" d="M373.061,298.377l-3.436-.347a3.883,3.883,0,0,1-3.4-3.778v-2.838a.53.53,0,0,1,.593-.537l2.843.285a3.883,3.883,0,0,1,3.4,3.778v3.437Z" transform="translate(-366.224 -290.874)" fill="#a7e9a6" fill-rule="evenodd"/>
      </g>
      <g id="Grupo_1158478" data-name="Grupo 1158478" transform="translate(36.158 28.716)">
        <path id="Trazado_988373" data-name="Trazado 988373" d="M369.624,298.03a3.883,3.883,0,0,1-3.4-3.778v-2.838a.53.53,0,0,1,.593-.537l.893.09v2.284a3.388,3.388,0,0,0,3.207,3.437l1,.1,1.147.115v1.475Z" transform="translate(-366.224 -290.874)" fill="#7fdbae" fill-rule="evenodd"/>
      </g>
      <g id="Grupo_1158479" data-name="Grupo 1158479" transform="translate(0.003 0)">
        <path id="Trazado_988374" data-name="Trazado 988374" d="M123.255,167.4a.74.74,0,0,0,.74-.74v-1.648a2.251,2.251,0,0,1,2.248-2.248h1.52a.74.74,0,0,0,0-1.481h-1.52a3.733,3.733,0,0,0-3.729,3.729v1.648A.741.741,0,0,0,123.255,167.4Z" transform="translate(-110.419 -145.363)"/>
        <path id="Trazado_988375" data-name="Trazado 988375" d="M123.255,245.376a.74.74,0,0,0,.74-.74v-2.443a.74.74,0,0,0-1.481,0v2.443A.74.74,0,0,0,123.255,245.376Z" transform="translate(-110.42 -217.615)"/>
        <path id="Trazado_988376" data-name="Trazado 988376" d="M157.863,189.872v3.588a.74.74,0,1,0,1.481,0v-3.588a.609.609,0,0,1,.6-.6h1.307a.74.74,0,1,0,0-1.481h-1.307A2.085,2.085,0,0,0,157.863,189.872Z" transform="translate(-142.278 -169.252)"/>
        <path id="Trazado_988377" data-name="Trazado 988377" d="M221.5,20.874a1.754,1.754,0,0,0,.976.293,1.875,1.875,0,0,0,.719-.145l2.445-1.012,6.279.484.46,1.592a1.953,1.953,0,0,0,1.106,1.243,2.42,2.42,0,0,0,.991.21,2.455,2.455,0,0,0,1.051-.234l11.58-5.5a2.462,2.462,0,0,0,1.309-1.568,1.952,1.952,0,0,0-.265-1.641l-2.334-3.373a6.781,6.781,0,1,0-11.876-3.806L230.6,9h0a2.416,2.416,0,0,0-1.146,2.993l.863,2.986h-4.656l-2.474-1.024a1.8,1.8,0,0,0-1.695.153,1.627,1.627,0,0,0-.732,1.372V19.5a1.626,1.626,0,0,0,.733,1.373Zm25.432-5.438a.483.483,0,0,1,.052.416.99.99,0,0,1-.514.612l-11.58,5.5a.99.99,0,0,1-.8.012.485.485,0,0,1-.291-.3l-2.209-7.64L242.4,8.9ZM238.412,1.993h0a5.3,5.3,0,0,1,6.522,7.959l0,0-2.765-4a2.422,2.422,0,0,0-3.048-1l-3.732,1.773h0a5.31,5.31,0,0,1,3.025-4.731Zm-7.175,8.342,8.518-4.046c.469-.222.937.135,1.2.508l.6.865-10.378,4.93-.293-1.013A1.006,1.006,0,0,1,231.237,10.336Zm-4.981,6.122h4.49l.727,2.517-5.217-.4V16.458Zm-4.013-.981a.157.157,0,0,1,.076-.141.29.29,0,0,1,.159-.045.383.383,0,0,1,.146.031l2.151.891v2.551l-2.152.891a.32.32,0,0,1-.306-.012.155.155,0,0,1-.074-.141Z" transform="translate(-198.968 0)"/>
        <path id="Trazado_988378" data-name="Trazado 988378" d="M115.985,462.52a.74.74,0,0,0,0,1.047l0,0a.74.74,0,1,0,0-1.05Z" transform="translate(-104.339 -416.663)"/>
        <path id="Trazado_988379" data-name="Trazado 988379" d="M188.948,466.318a.74.74,0,0,0,0,1.047l0,0a.74.74,0,1,0,0-1.05Z" transform="translate(-170.099 -420.086)"/>
        <path id="Trazado_988380" data-name="Trazado 988380" d="M305.99,462.52a.74.74,0,0,0,0,1.047l0,0a.74.74,0,1,0,0-1.05Z" transform="translate(-275.586 -416.663)"/>
        <path id="Trazado_988381" data-name="Trazado 988381" d="M369.472,467.584a.743.743,0,1,0-.524-.219l0,0A.735.735,0,0,0,369.472,467.584Z" transform="translate(-332.328 -420.086)"/>
        <path id="Trazado_988382" data-name="Trazado 988382" d="M46.482,295.816a4.628,4.628,0,0,0,4.067-4.515v-2.838a1.27,1.27,0,0,0-1.408-1.274l-2.844.286a4.461,4.461,0,0,0-2.582,1.2l.006-.509a4.606,4.606,0,0,0-4.053-4.5l-2.842-.285a1.27,1.27,0,0,0-1.409,1.274v2.838a4.633,4.633,0,0,0,4.066,4.515l2.751.278v5.331H36.852a.74.74,0,0,0,0,1.481H48.631a.437.437,0,0,1,.438.435v4.494a.444.444,0,0,1-.438.438H1.919a.442.442,0,0,1-.435-.438v-4.494a.441.441,0,0,1,.435-.435H33.432a.74.74,0,1,0,0-1.481H26.015V296.1l2.77-.28a4.628,4.628,0,0,0,4.067-4.515v-2.838a1.271,1.271,0,0,0-1.408-1.274l-2.844.286a4.466,4.466,0,0,0-2.585,1.2s.02-.437.02-.495a4.633,4.633,0,0,0-4.067-4.515l-2.841-.285a1.269,1.269,0,0,0-1.407,1.274v2.838a4.633,4.633,0,0,0,4.066,4.515l2.748.278v5.331H8.318V296.1l2.767-.28a4.628,4.628,0,0,0,4.067-4.515v-2.838a1.269,1.269,0,0,0-1.4-1.274l-2.844.285a4.466,4.466,0,0,0-2.585,1.2s.02-.437.02-.495a4.633,4.633,0,0,0-4.067-4.515L1.43,283.38a1.28,1.28,0,0,0-.987.318,1.287,1.287,0,0,0-.42.956v2.838a4.633,4.633,0,0,0,4.066,4.515l2.748.278v5.331H1.919A1.918,1.918,0,0,0,0,299.531v4.494a1.919,1.919,0,0,0,1.916,1.919H48.631a1.921,1.921,0,0,0,1.919-1.919v-4.495a1.919,1.919,0,0,0-1.919-1.916H43.715V296.1Zm-2.767-3.826a3.158,3.158,0,0,1,2.731-3.041l2.622-.263V291.3a3.156,3.156,0,0,1-2.734,3.041l-1.522.154,1.883-2.083a.74.74,0,0,0-1.1-.993L43.715,293.5Zm-1.481-2.316-1.864-2.062a.74.74,0,1,0-1.1.993l1.882,2.083-1.521-.154a3.16,3.16,0,0,1-2.735-3.041v-2.616l2.621.263a3.142,3.142,0,0,1,2.715,3.041Zm-16.219,2.316a3.16,3.16,0,0,1,2.734-3.041l2.622-.263V291.3a3.155,3.155,0,0,1-2.734,3.041l-1.522.154L29,292.413a.74.74,0,0,0-1.1-.993L26.015,293.5ZM21.574,288.6l1.883,2.083-1.521-.154a3.16,3.16,0,0,1-2.735-3.041v-2.616l2.618.263a3.141,3.141,0,0,1,2.715,3.041v1.49l-1.861-2.059a.741.741,0,0,0-1.1.993ZM8.318,291.989a3.16,3.16,0,0,1,2.734-3.041l2.619-.263V291.3a3.155,3.155,0,0,1-2.734,3.041l-1.521.154,1.884-2.083a.74.74,0,1,0-1.1-.994L8.318,293.5ZM3.877,288.6l1.883,2.083-1.521-.154A3.16,3.16,0,0,1,1.5,287.492v-2.616l2.618.263a3.142,3.142,0,0,1,2.715,3.041v1.49l-1.861-2.059a.741.741,0,0,0-1.1.993Z" transform="translate(-0.003 -255.398)"/>
      </g>
    </g>
  </g>
</svg>
