<svg xmlns="http://www.w3.org/2000/svg" width="85.048" height="85.048" viewBox="0 0 85.048 85.048">
  <g id="Grupo_1158492" data-name="Grupo 1158492" transform="translate(-180 -982)">
    <g id="Grupo_1103990" data-name="Grupo 1103990" transform="translate(180 982)">
      <g id="Trazado_874102" data-name="Trazado 874102" transform="translate(0)" fill="#f3d02c">
        <path d="M 42.52417755126953 82.54833984375 C 37.11984252929688 82.54833984375 31.87851142883301 81.49046325683594 26.94573783874512 79.40407562255859 C 22.17999076843262 77.38832855224609 17.89937782287598 74.50209045410156 14.22281742095947 70.82553100585938 C 10.54625797271729 67.14897155761719 7.660017490386963 62.86835479736328 5.644270896911621 58.10261154174805 C 3.557884216308594 53.16983795166016 2.500004291534424 47.92850494384766 2.500004291534424 42.524169921875 C 2.500004291534424 37.11983489990234 3.557884216308594 31.87849044799805 5.644270896911621 26.94571685791016 C 7.660017490386963 22.17996978759766 10.54625797271729 17.89935684204102 14.22281742095947 14.22280979156494 C 17.89937782287598 10.54625034332275 22.17997741699219 7.660009860992432 26.94573783874512 5.64426326751709 C 31.87851142883301 3.557876586914062 37.11984252929688 2.499996662139893 42.52417755126953 2.499996662139893 C 47.92851257324219 2.499996662139893 53.16985702514648 3.557876586914062 58.10263061523438 5.64426326751709 C 62.86837768554688 7.660009860992432 67.14899444580078 10.54625034332275 70.82553863525391 14.22280979156494 C 74.50209808349609 17.89935684204102 77.38833618164062 22.17996978759766 79.40408325195312 26.94571685791016 C 81.49047088623047 31.87849044799805 82.54834747314453 37.11983489990234 82.54834747314453 42.524169921875 C 82.54834747314453 47.92850494384766 81.49047088623047 53.16983795166016 79.40408325195312 58.10261154174805 C 77.38833618164062 62.86837005615234 74.50209808349609 67.14897155761719 70.82553863525391 70.82553100585938 C 67.14899444580078 74.50209045410156 62.86837768554688 77.38832855224609 58.10263061523438 79.40407562255859 C 53.16985702514648 81.49046325683594 47.92851257324219 82.54833984375 42.52417755126953 82.54833984375 Z" stroke="none"/>
        <path d="M 42.52417755126953 5 C 37.45623779296875 5 32.54256057739258 5.991447448730469 27.91960906982422 7.946784973144531 C 23.45185470581055 9.836479187011719 19.43834686279297 12.54280090332031 15.99057769775391 15.99057006835938 C 12.54280853271484 19.43833923339844 9.83648681640625 23.45184707641602 7.946792602539062 27.91960144042969 C 5.991455078125 32.54255294799805 5.000007629394531 37.45623016357422 5.000007629394531 42.524169921875 C 5.000007629394531 47.59210968017578 5.991455078125 52.50578689575195 7.946792602539062 57.12873840332031 C 9.83648681640625 61.59649276733398 12.54280853271484 65.61000061035156 15.99057769775391 69.05776977539062 C 19.43834686279297 72.50553894042969 23.45185470581055 75.21186065673828 27.91960906982422 77.10155487060547 C 32.54256057739258 79.05689239501953 37.45623779296875 80.04833984375 42.52417755126953 80.04833984375 C 47.59211730957031 80.04833984375 52.50579452514648 79.05689239501953 57.12874603271484 77.10155487060547 C 61.59650039672852 75.21186065673828 65.61000823974609 72.50553894042969 69.05777740478516 69.05776977539062 C 72.50554656982422 65.61000061035156 75.21186828613281 61.59649276733398 77.1015625 57.12873840332031 C 79.05690002441406 52.50578689575195 80.04834747314453 47.59210968017578 80.04834747314453 42.524169921875 C 80.04834747314453 37.45623016357422 79.05690002441406 32.54255294799805 77.1015625 27.91960144042969 C 75.21186828613281 23.45184707641602 72.50554656982422 19.43833923339844 69.05777740478516 15.99057006835938 C 65.61000823974609 12.54280090332031 61.59650039672852 9.836479187011719 57.12874603271484 7.946784973144531 C 52.50579452514648 5.991447448730469 47.59211730957031 5 42.52417755126953 5 M 42.52417755126953 0 C 66.00962829589844 0 85.04834747314453 19.03872680664062 85.04834747314453 42.524169921875 C 85.04834747314453 66.00961303710938 66.00962829589844 85.04833984375 42.52417755126953 85.04833984375 C 19.03873443603516 85.04833984375 7.62939453125e-06 66.00961303710938 7.62939453125e-06 42.524169921875 C 7.62939453125e-06 19.03872680664062 19.03873443603516 0 42.52417755126953 0 Z" stroke="none" fill="#fff"/>
      </g>
    </g>
    <g id="hojas-de-coca" transform="translate(195.854 1002)">
      <g id="Grupo_1158490" data-name="Grupo 1158490" transform="translate(5.771 0.922)">
        <g id="Grupo_1158489" data-name="Grupo 1158489" transform="translate(0)">
          <g id="Grupo_1158481" data-name="Grupo 1158481" transform="translate(0.003)">
            <path id="Trazado_988383" data-name="Trazado 988383" d="M36.772,31.809c-.038-10.1-5.78-15.106-12.2-21.2-2.394,2.049-7.664,7.908-7.664,7.908a21.747,21.747,0,0,0,1.824,28.658l5.84,5.84c6.411-6.135,12.241-11.108,12.2-21.2Z" transform="translate(-12.37 -10.606)" fill="#6ad34d"/>
          </g>
          <g id="Grupo_1158482" data-name="Grupo 1158482" transform="translate(0 0)">
            <path id="Trazado_988384" data-name="Trazado 988384" d="M36.738,31.81q0-.669-.039-1.308c-.51,9.118-6.074,13.9-12.164,19.725L20.487,46.18a20.455,20.455,0,0,1,.573-29.525l4.874-4.647-1.4-1.4c-7.248,6.954-11.478,10.986-12.152,19.811A21.708,21.708,0,0,0,18.7,47.173l5.84,5.84c6.328-6.048,12.263-11.12,12.2-21.2Z" transform="translate(-12.333 -10.607)" fill="#31a469"/>
          </g>
          <g id="Grupo_1158483" data-name="Grupo 1158483" transform="translate(12.257 12.671)">
            <path id="Trazado_988385" data-name="Trazado 988385" d="M183.351,156.475c-3.142-.244-11.011.173-11.011.173a21.39,21.39,0,0,0-7.586,2.442,22.237,22.237,0,0,1,.759,5.841c.037,10.066-5.758,15.04-12.148,21.15v.38c8.59-.061,16.51.8,23.622-6.364S183.582,165.329,183.351,156.475Z" transform="translate(-153.366 -156.399)" fill="#6ad34d"/>
          </g>
          <g id="Grupo_1158484" data-name="Grupo 1158484" transform="translate(12.257 14.457)">
            <path id="Trazado_988386" data-name="Trazado 988386" d="M183.455,179.521c.612,14.309-10.927,24.749-25.033,23.591,6.861-6.353,11.159-15.543,8.077-26.1,0,0,.528-.386-1.743.848,2.573,10.384-2.4,18.583-9.4,25.2-.035,0-1.352,1.185-1.987,1.793v.467c.8-.2,9.588.156,13.376-.694h0C178.4,202.127,184.457,190.438,183.455,179.521Z" transform="translate(-153.368 -176.956)" fill="#31a469"/>
          </g>
          <g id="Grupo_1158485" data-name="Grupo 1158485" transform="translate(11.55 9.449)">
            <path id="Trazado_988387" data-name="Trazado 988387" d="M145.23,119.329h1.3v1.3h-1.3Z" transform="translate(-145.23 -119.329)" fill="#fff"/>
          </g>
          <g id="Grupo_1158486" data-name="Grupo 1158486" transform="translate(11.55 6.842)">
            <path id="Trazado_988388" data-name="Trazado 988388" d="M145.225,89.329h1.3v1.3h-1.3Z" transform="translate(-145.225 -89.329)" fill="#fff"/>
          </g>
          <g id="Grupo_1158487" data-name="Grupo 1158487" transform="translate(34.116 18.983)">
            <path id="Trazado_988389" data-name="Trazado 988389" d="M0,0H1.3V1.3H0Z" transform="translate(0 0.922) rotate(-45)" fill="#fff"/>
          </g>
          <g id="Grupo_1158488" data-name="Grupo 1158488" transform="translate(35.96 17.139)">
            <path id="Trazado_988390" data-name="Trazado 988390" d="M0,0H1.3V1.3H0Z" transform="translate(0 0.922) rotate(-45)" fill="#fff"/>
          </g>
        </g>
      </g>
      <g id="Grupo_1158491" data-name="Grupo 1158491" transform="translate(5.146 0)">
        <path id="Trazado_988391" data-name="Trazado 988391" d="M205.225,494.956h1.3v1.3h-1.3Z" transform="translate(-187.836 -451.94)"/>
        <path id="Trazado_988392" data-name="Trazado 988392" d="M85.966,13.03a22.435,22.435,0,0,0-9.915,2.312C74.594,9.443,68.376,4.183,64.239,0c-1.659,1.741-7.113,6.862-8.422,8.75l1.044.78c1.2-1.736,5.863-6.1,7.377-7.686C70.309,7.6,75.978,13.091,75.791,22.125h1.3a22.524,22.524,0,0,0-.68-5.508c4.787-2.793,11.8-2.282,17.157-2.284v7.607A21.168,21.168,0,0,1,71.409,43.016v1.3c12.412.792,23.738-9.911,23.466-22.379,0,0,0-8.911,0-8.911H85.966Z" transform="translate(-51.413 0)"/>
        <path id="Trazado_988393" data-name="Trazado 988393" d="M24.164,141.88h8.063v-1.3H25.468l4.227-4.227h8.063v-1.3H31l4.227-4.227H41.8v-1.3H36.529l3.364-3.364-.922-.922-3.346,3.346V123.34h-1.3v6.539l-5.978,5.978a22.339,22.339,0,0,0,2.445-8.929l-1.3-.076c-.283,8.027-5.368,13.221-10.863,18.386V138.7l5.7-5.7-.922-.922-4.78,4.78v-5.978l5.7-5.7-.922-.922-4.78,4.78v-5.978l4.649-4.649-.922-.922-3.727,3.727V116.46h-1.3v4.732l-3.7-3.7-.922.922,4.624,4.624v5.978l-4.754-4.754-.922.922,5.676,5.676v5.978l-4.754-4.754-.922.922,5.676,5.676v6.558l-4.727-4.727a21.145,21.145,0,0,1-2.726-26.462l-1.089-.716a22.508,22.508,0,0,0,2.893,28.1l6.3,6.3v.071h3.26v-1.3H19.545Z" transform="translate(-5.146 -103.482)"/>
      </g>
    </g>
  </g>
</svg>
