<svg xmlns="http://www.w3.org/2000/svg" xmlns:xlink="http://www.w3.org/1999/xlink" width="105.781" height="105.781" viewBox="0 0 105.781 105.781">
  <defs>
    <filter id="Trazado_986931" x="0" y="0" width="105.781" height="105.781" filterUnits="userSpaceOnUse">
      <feOffset dy="3" input="SourceAlpha"/>
      <feGaussianBlur stdDeviation="3" result="blur"/>
      <feFlood flood-opacity="0.161"/>
      <feComposite operator="in" in2="blur"/>
      <feComposite in="SourceGraphic"/>
    </filter>
  </defs>
  <g id="Grupo_1158508" data-name="Grupo 1158508" transform="translate(-432.051 -1799)">
    <g transform="matrix(1, 0, 0, 1, 432.05, 1799)" filter="url(#Trazado_986931)">
      <g id="Trazado_986931-2" data-name="Trazado 986931" transform="translate(9 6)" fill="#f3d02c">
        <path d="M 43.8906364440918 85.28125762939453 C 38.30183792114258 85.28125762939453 32.88154220581055 84.18724060058594 27.78030395507812 82.02960205078125 C 22.85183715820312 79.94503021240234 18.42508888244629 76.96026611328125 14.62304973602295 73.15821838378906 C 10.82099628448486 69.35617828369141 7.836236476898193 64.92942810058594 5.751663208007812 60.00096130371094 C 3.59402322769165 54.89972305297852 2.500009775161743 49.47942733764648 2.500009775161743 43.89062881469727 C 2.500009775161743 38.30183029174805 3.59402322769165 32.88153457641602 5.751663208007812 27.78029632568359 C 7.836236476898193 22.85182952880859 10.82099628448486 18.42508125305176 14.62304973602295 14.62304210662842 C 18.42508888244629 10.82098865509033 22.85183715820312 7.836228847503662 27.78030395507812 5.751655578613281 C 32.88154220581055 3.594015598297119 38.30183792114258 2.500002145767212 43.8906364440918 2.500002145767212 C 49.47943496704102 2.500002145767212 54.89973068237305 3.594015598297119 60.00096893310547 5.751655578613281 C 64.92943572998047 7.836228847503662 69.35618591308594 10.82098865509033 73.15822601318359 14.62304210662842 C 76.96027374267578 18.42508125305176 79.94503784179688 22.85182952880859 82.02960968017578 27.78029632568359 C 84.18724822998047 32.88153457641602 85.28126525878906 38.30183029174805 85.28126525878906 43.89062881469727 C 85.28126525878906 49.47942733764648 84.18724822998047 54.89972305297852 82.02960968017578 60.00096130371094 C 79.94503784179688 64.92942810058594 76.96027374267578 69.35617828369141 73.15822601318359 73.15821838378906 C 69.35618591308594 76.96026611328125 64.92943572998047 79.94503021240234 60.00096893310547 82.02960205078125 C 54.89973068237305 84.18724060058594 49.47943496704102 85.28125762939453 43.8906364440918 85.28125762939453 Z" stroke="none"/>
        <path d="M 43.8906364440918 4.999992370605469 C 38.63823699951172 4.999992370605469 33.54560470581055 6.027565002441406 28.75418472290039 8.054161071777344 C 24.12371826171875 10.0126953125 19.96407318115234 12.81754302978516 16.39080047607422 16.39079284667969 C 12.81755065917969 19.96406555175781 10.01270294189453 24.12371063232422 8.054168701171875 28.75417709350586 C 6.027572631835938 33.54559707641602 5 38.63822937011719 5 43.89062881469727 C 5 49.14302825927734 6.027572631835938 54.23566055297852 8.054168701171875 59.02707672119141 C 10.01270294189453 63.65754699707031 12.81755065917969 67.81719970703125 16.39080047607422 71.39046478271484 C 19.96407318115234 74.96371459960938 24.12371826171875 77.76856231689453 28.75418472290039 79.72709655761719 C 33.54560470581055 81.75369262695312 38.63823699951172 82.78126525878906 43.8906364440918 82.78126525878906 C 49.14303588867188 82.78126525878906 54.23566818237305 81.75369262695312 59.02708435058594 79.72709655761719 C 63.65755462646484 77.76856231689453 67.81719970703125 74.96371459960938 71.39047241210938 71.39046478271484 C 74.96372222900391 67.81719970703125 77.76856994628906 63.65754699707031 79.72710418701172 59.02707672119141 C 81.75370025634766 54.23566055297852 82.78127288818359 49.14302825927734 82.78127288818359 43.89062881469727 C 82.78127288818359 38.63822937011719 81.75370025634766 33.54559707641602 79.72710418701172 28.75417709350586 C 77.76856994628906 24.12371063232422 74.96372222900391 19.96406555175781 71.39047241210938 16.39079284667969 C 67.81719970703125 12.81754302978516 63.65755462646484 10.0126953125 59.02708435058594 8.054161071777344 C 54.23566818237305 6.027565002441406 49.14303588867188 4.999992370605469 43.8906364440918 4.999992370605469 M 43.8906364440918 -7.62939453125e-06 C 68.13075256347656 -7.62939453125e-06 87.78127288818359 19.6505126953125 87.78127288818359 43.89062881469727 C 87.78127288818359 68.13074493408203 68.13075256347656 87.78126525878906 43.8906364440918 87.78126525878906 C 19.65052032470703 87.78126525878906 0 68.13074493408203 0 43.89062881469727 C 0 19.6505126953125 19.65052032470703 -7.62939453125e-06 43.8906364440918 -7.62939453125e-06 Z" stroke="none" fill="#fff"/>
      </g>
    </g>
    <g id="sistema-de-riego" transform="translate(442.051 1803.686)">
      <path id="Trazado_988514" data-name="Trazado 988514" d="M176,128h17.941v16.147H176Z" transform="translate(-142.059 -96.499)" fill="#e6e5e0"/>
      <path id="Trazado_988515" data-name="Trazado 988515" d="M179.588,216.9a.9.9,0,0,1-.9.9H176V216h2.691A.9.9,0,0,1,179.588,216.9Z" transform="translate(-142.059 -174.632)" fill="#e6e5e0"/>
      <path id="Trazado_988516" data-name="Trazado 988516" d="M179.588,168.9a.9.9,0,0,1-.9.9H176V168h2.691A.9.9,0,0,1,179.588,168.9Z" transform="translate(-142.059 -132.014)" fill="#e6e5e0"/>
      <path id="Trazado_988517" data-name="Trazado 988517" d="M307.588,168v1.794H304.9a.9.9,0,1,1,0-1.794Z" transform="translate(-255.707 -132.014)" fill="#e6e5e0"/>
      <path id="Trazado_988518" data-name="Trazado 988518" d="M307.588,216v1.794H304.9a.9.9,0,1,1,0-1.794Z" transform="translate(-255.707 -174.632)" fill="#e6e5e0"/>
      <g id="Grupo_1158507" data-name="Grupo 1158507" transform="translate(18.691 53.142)">
        <path id="Trazado_988519" data-name="Trazado 988519" d="M328,416h4.093a3.228,3.228,0,0,1,3,2.029l.982,2.456H333.14a3.229,3.229,0,0,1-2.521-1.212Z" transform="translate(-295.707 -405.348)" fill="#57a865"/>
        <path id="Trazado_988520" data-name="Trazado 988520" d="M408.073,416H403.98a3.228,3.228,0,0,0-3,2.029L400,420.485h2.934a3.228,3.228,0,0,0,2.521-1.212Z" transform="translate(-359.634 -405.348)" fill="#57a865"/>
        <path id="Trazado_988521" data-name="Trazado 988521" d="M377.152,321l-1.846,2.307a4.743,4.743,0,0,0,0,5.927l1.846,2.307L379,329.233a4.743,4.743,0,0,0,0-5.927Z" transform="translate(-336.785 -321)" fill="#57a865"/>
        <path id="Trazado_988522" data-name="Trazado 988522" d="M40,416h4.093a3.228,3.228,0,0,1,3,2.029l.982,2.456H45.14a3.229,3.229,0,0,1-2.521-1.212Z" transform="translate(-40 -405.348)" fill="#57a865"/>
        <path id="Trazado_988523" data-name="Trazado 988523" d="M120.073,416H115.98a3.228,3.228,0,0,0-3,2.029L112,420.485h2.934a3.229,3.229,0,0,0,2.521-1.212Z" transform="translate(-103.927 -405.348)" fill="#57a865"/>
        <path id="Trazado_988524" data-name="Trazado 988524" d="M90,322.736l-1.777,2.222a4.568,4.568,0,0,0,0,5.707L90,332.887l1.777-2.222a4.568,4.568,0,0,0,0-5.707Z" transform="translate(-81.925 -322.541)" fill="#57a865"/>
      </g>
      <path id="Trazado_988525" data-name="Trazado 988525" d="M235.058,165.9l-2.2,3.3a2.644,2.644,0,1,0,4.4,0Z" transform="translate(-192.147 -130.149)" fill="#a1dcff"/>
      <path id="Trazado_988526" data-name="Trazado 988526" d="M81.794,160h8.97v3.588h-8.97a1.794,1.794,0,1,1,0-3.588Z" transform="translate(-56.824 -124.911)" fill="#d6d5d0"/>
      <path id="Trazado_988527" data-name="Trazado 988527" d="M96.9,194.691,96,192h3.588l-.9,2.691Z" transform="translate(-71.03 -153.323)" fill="#e6e5e0"/>
      <path id="Trazado_988528" data-name="Trazado 988528" d="M1.794,0h8.97V3.588H1.794A1.794,1.794,0,0,1,1.794,0Z" transform="translate(62.645 38.677) rotate(180)" fill="#d6d5d0"/>
      <path id="Trazado_988529" data-name="Trazado 988529" d="M386.691,194.691l.9-2.691H384l.9,2.691Z" transform="translate(-326.737 -153.323)" fill="#e6e5e0"/>
      <path id="Trazado_988530" data-name="Trazado 988530" d="M224.854,54.683a.9.9,0,0,0,.634-1.531,6.278,6.278,0,0,0-8.46-.383.9.9,0,1,0,1.149,1.378,4.484,4.484,0,0,1,6.042.274.894.894,0,0,0,.634.263Z" transform="translate(-178.201 -28.41)"/>
      <path id="Trazado_988531" data-name="Trazado 988531" d="M209.054,23.736a.9.9,0,0,0,.634-1.531,9.866,9.866,0,0,0-13.294-.6.9.9,0,1,0,1.149,1.377,8.071,8.071,0,0,1,10.876.493A.894.894,0,0,0,209.054,23.736Z" transform="translate(-159.864)"/>
      <path id="Trazado_988532" data-name="Trazado 988532" d="M237.513,83.937a.9.9,0,1,0,1.149,1.378.9.9,0,0,1,1.208.055.9.9,0,1,0,1.268-1.269,2.69,2.69,0,0,0-3.626-.164Z" transform="translate(-196.389 -56.822)"/>
      <path id="Trazado_988533" data-name="Trazado 988533" d="M69.822,160.366H59.954v-1.794h2.036a4.105,4.105,0,0,0,3.221-1.548l2.619-3.273a.9.9,0,0,0-.7-1.458H63.037a4.1,4.1,0,0,0-3.083,1.384v-1.069l1.374-1.718a4.907,4.907,0,0,0,0-6.164l-1.571-1.964a.9.9,0,0,0-1.4,0l-1.571,1.964a4.907,4.907,0,0,0,0,6.164l1.374,1.718v1.069a4.1,4.1,0,0,0-3.083-1.384H50.984a.9.9,0,0,0-.7,1.458l2.619,3.273a4.105,4.105,0,0,0,3.221,1.548H58.16v1.794H49.126l-1.661-22.426h4.416a.9.9,0,0,0,.9-.9V128.97h3.839l.693,2.078a.9.9,0,0,0,.851.613h1.794a.9.9,0,0,0,.851-.613l.721-2.164a2.691,2.691,0,0,0-.675-5.3H52.778V120.9a.9.9,0,0,0-.9-.9H33.941a.9.9,0,0,0-.9.9v2.691H24.97a2.691,2.691,0,0,0-.675,5.3l.721,2.164a.9.9,0,0,0,.851.613h1.794a.9.9,0,0,0,.851-.613l.693-2.078h3.839v8.073a.9.9,0,0,0,.9.9h4.416L36.7,160.366H27.661v-1.794H29.7a4.105,4.105,0,0,0,3.221-1.548l2.619-3.273a.9.9,0,0,0-.7-1.458H30.744a4.1,4.1,0,0,0-3.083,1.384v-1.069l1.374-1.718a4.907,4.907,0,0,0,0-6.164l-1.571-1.964a.9.9,0,0,0-1.4,0l-1.571,1.964a4.907,4.907,0,0,0,0,6.164l1.374,1.718v1.069a4.1,4.1,0,0,0-3.083-1.384H18.691a.9.9,0,0,0-.7,1.458l2.619,3.273a4.105,4.105,0,0,0,3.221,1.548h2.036v1.794H16.9a.9.9,0,0,0,0,1.794H69.822a.9.9,0,0,0,0-1.794Zm-8.949-4.814a2.32,2.32,0,0,1,2.165-1.465h2.227L63.812,155.9a2.32,2.32,0,0,1-1.82.875H60.382Zm-4.749,1.226a2.319,2.319,0,0,1-1.82-.875l-1.453-1.816h2.227a2.32,2.32,0,0,1,2.165,1.465l.49,1.226Zm3.184-26.911h-.5l-.3-.9h1.1Zm-6.53-4.485h8.073a.9.9,0,1,1,0,1.794H52.778Zm-25.763,4.485h-.5l-.3-.9h1.1Zm6.029-2.691H24.97a.9.9,0,1,1,0-1.794h8.073Zm-4.464,28.376a2.32,2.32,0,0,1,2.165-1.465h2.227L31.519,155.9a2.32,2.32,0,0,1-1.82.875H28.089Zm-4.749,1.226a2.319,2.319,0,0,1-1.821-.875l-1.453-1.816h2.227a2.32,2.32,0,0,1,2.164,1.465l.491,1.226Zm2.934-5.921-.87-1.088a3.123,3.123,0,0,1,0-3.923l.87-1.088.87,1.088a3.123,3.123,0,0,1,0,3.923Zm8.073-14.711v-3.588h1.794a.9.9,0,0,0,0-1.794H34.838v-3.588h1.794a.9.9,0,1,0,0-1.794H34.838v-3.588H50.984v3.588H49.19a.9.9,0,0,0,0,1.794h1.794v3.588H49.19a.9.9,0,0,0,0,1.794h1.794v3.588Zm8.073,3.783-2.238-1.989h4.476Zm2.89-.168.217,2.93-1.757-1.561Zm-4.24,1.369L39.8,142.692l.217-2.93Zm1.35,1.2,3.135,2.787h-6.27Zm-3.076,4.581h6.152l-3.076,2.82Zm1.749,4.037L39.018,153.3l.326-4.4Zm4.894-2.052.326,4.4-2.565-2.352Zm-7.983,11.471.33-4.456,4.086-3.746L47,155.91l.33,4.457Zm20.563-9.509-.87-1.088a3.123,3.123,0,0,1,0-3.923l.87-1.088.87,1.088a3.123,3.123,0,0,1,0,3.923Z" transform="translate(0 -89.396)"/>
      <path id="Trazado_988534" data-name="Trazado 988534" d="M228.7,158.3a.9.9,0,0,0-1.493,0l-2.2,3.3a3.542,3.542,0,1,0,5.893,0Zm.3,6.663a1.748,1.748,0,0,1-2.5-2.367l1.454-2.181,1.454,2.181A1.748,1.748,0,0,1,229,164.96Z" transform="translate(-185.045 -123.044)"/>
      <path id="Trazado_988535" data-name="Trazado 988535" d="M104,281.794a.9.9,0,1,0,1.794,0v-.9a.9.9,0,1,0-1.794,0Z" transform="translate(-78.133 -231.455)"/>
      <path id="Trazado_988536" data-name="Trazado 988536" d="M104.9,242.691a.9.9,0,0,0,.9-.9v-.9a.9.9,0,0,0-1.794,0v.9A.9.9,0,0,0,104.9,242.691Z" transform="translate(-78.133 -195.94)"/>
      <path id="Trazado_988537" data-name="Trazado 988537" d="M392.9,280a.9.9,0,0,0-.9.9v.9a.9.9,0,0,0,1.794,0v-.9A.9.9,0,0,0,392.9,280Z" transform="translate(-333.84 -231.455)"/>
      <path id="Trazado_988538" data-name="Trazado 988538" d="M393.794,240.9a.9.9,0,0,0-1.794,0v.9a.9.9,0,1,0,1.794,0Z" transform="translate(-333.84 -195.94)"/>
    </g>
  </g>
</svg>
