<svg xmlns="http://www.w3.org/2000/svg" width="112.068" height="112.068" viewBox="0 0 112.068 112.068">
  <g id="Grupo_1106058" data-name="Grupo 1106058" transform="translate(-1216.333 -419)">
    <g id="Grupo_1103990" data-name="Grupo 1103990" transform="translate(261 254)">
      <g id="Trazado_874102" data-name="Trazado 874102" transform="translate(955.333 165)" fill="#f3d02c">
        <path d="M 56.03418731689453 109.5683670043945 C 48.8060188293457 109.5683670043945 41.79538726806641 108.1532897949219 35.19703674316406 105.362419128418 C 32.02545547485352 104.0209503173828 28.96627044677734 102.3604507446289 26.10445404052734 100.4270553588867 C 23.26918792724609 98.51158905029297 20.60295486450195 96.31172180175781 18.1798038482666 93.88857269287109 C 15.75665378570557 91.46542358398438 13.55678749084473 88.79917144775391 11.64132022857666 85.96390533447266 C 9.707921028137207 83.10210418701172 8.047420501708984 80.04292297363281 6.705954074859619 76.871337890625 C 3.915087223052979 70.27298736572266 2.500004053115845 63.26235580444336 2.500004053115845 56.03418731689453 C 2.500004053115845 48.8060188293457 3.915087223052979 41.79538726806641 6.705954074859619 35.19703674316406 C 8.047420501708984 32.02545547485352 9.707921028137207 28.96627044677734 11.64132022857666 26.10445404052734 C 13.55678749084473 23.26918792724609 15.75665378570557 20.60295486450195 18.1798038482666 18.1798038482666 C 20.60295486450195 15.75665378570557 23.26918792724609 13.55678749084473 26.10445404052734 11.64132022857666 C 28.96627044677734 9.707921028137207 32.02545547485352 8.047420501708984 35.19703674316406 6.705954074859619 C 41.79538726806641 3.915087223052979 48.8060188293457 2.500004053115845 56.03418731689453 2.500004053115845 C 63.26235580444336 2.500004053115845 70.27298736572266 3.915087223052979 76.871337890625 6.705954074859619 C 80.04292297363281 8.047420501708984 83.10210418701172 9.707921028137207 85.96390533447266 11.64132022857666 C 88.79917144775391 13.55678749084473 91.46542358398438 15.75665378570557 93.88857269287109 18.1798038482666 C 96.31172180175781 20.60295486450195 98.51158905029297 23.26918792724609 100.4270553588867 26.10445404052734 C 102.3604507446289 28.96627044677734 104.0209503173828 32.02545547485352 105.362419128418 35.19703674316406 C 108.1532897949219 41.79538726806641 109.5683670043945 48.8060188293457 109.5683670043945 56.03418731689453 C 109.5683670043945 63.26235580444336 108.1532897949219 70.27298736572266 105.362419128418 76.871337890625 C 104.0209503173828 80.04292297363281 102.3604507446289 83.10210418701172 100.4270553588867 85.96390533447266 C 98.51158905029297 88.79917144775391 96.31172180175781 91.46542358398438 93.88857269287109 93.88857269287109 C 91.46542358398438 96.31172180175781 88.79917144775391 98.51158905029297 85.96390533447266 100.4270553588867 C 83.10210418701172 102.3604507446289 80.04292297363281 104.0209503173828 76.871337890625 105.362419128418 C 70.27298736572266 108.1532897949219 63.26235580444336 109.5683670043945 56.03418731689453 109.5683670043945 Z" stroke="none"/>
        <path d="M 56.03418731689453 5.000007629394531 C 49.14240646362305 5.000007629394531 42.45942687988281 6.348648071289062 36.17090606689453 9.008468627929688 C 30.09439086914062 11.57862854003906 24.63607025146484 15.25906372070312 19.94757080078125 19.94757080078125 C 15.25906372070312 24.63607025146484 11.57862854003906 30.09439086914062 9.008468627929688 36.17090606689453 C 6.348648071289062 42.45942687988281 5.000007629394531 49.14240646362305 5.000007629394531 56.03418731689453 C 5.000007629394531 62.92596817016602 6.348648071289062 69.60893249511719 9.008468627929688 75.89746856689453 C 11.57862854003906 81.97396850585938 15.25906372070312 87.43228912353516 19.94757080078125 92.12080383300781 C 24.63607025146484 96.80931091308594 30.09439086914062 100.48974609375 36.17090606689453 103.0599060058594 C 42.45944976806641 105.7197265625 49.14240646362305 107.0683670043945 56.03418731689453 107.0683670043945 C 62.92596817016602 107.0683670043945 69.60893249511719 105.7197265625 75.89744567871094 103.0599060058594 C 81.97396850585938 100.48974609375 87.43228912353516 96.80931091308594 92.12080383300781 92.12080383300781 C 96.80931091308594 87.43228912353516 100.48974609375 81.97396850585938 103.0599060058594 75.89744567871094 C 105.7197265625 69.60893249511719 107.0683670043945 62.92596817016602 107.0683670043945 56.03418731689453 C 107.0683670043945 49.14240646362305 105.7197265625 42.45944976806641 103.0599060058594 36.17090606689453 C 100.48974609375 30.09439086914062 96.80931091308594 24.63607025146484 92.12080383300781 19.94757080078125 C 87.43228912353516 15.25906372070312 81.97396850585938 11.57862854003906 75.89746856689453 9.008468627929688 C 69.60893249511719 6.348648071289062 62.92596817016602 5.000007629394531 56.03418731689453 5.000007629394531 M 56.03418731689453 7.62939453125e-06 C 86.98100280761719 7.62939453125e-06 112.0683670043945 25.08734893798828 112.0683670043945 56.03418731689453 C 112.0683670043945 86.98100280761719 86.98100280761719 112.0683670043945 56.03418731689453 112.0683670043945 C 25.08734893798828 112.0683670043945 7.62939453125e-06 86.98100280761719 7.62939453125e-06 56.03418731689453 C 7.62939453125e-06 25.08734893798828 25.08734893798828 7.62939453125e-06 56.03418731689453 7.62939453125e-06 Z" stroke="none" fill="#fff"/>
      </g>
    </g>
    <g id="tierra" transform="translate(1241.333 432.707)">
      <g id="Grupo_1106056" data-name="Grupo 1106056" transform="translate(0.9 14.201)">
        <path id="Trazado_895810" data-name="Trazado 895810" d="M67.133,387.55H7.5V376.1l29.817-2.712L67.133,376.1Z" transform="translate(-7.5 -331.087)" fill="#d98f61"/>
        <path id="Trazado_895811" data-name="Trazado 895811" d="M39.116,373.55l-1.8-.164L7.5,376.1V387.55h3.6V376.1Z" transform="translate(-7.5 -331.087)" fill="#d37f50"/>
        <path id="Trazado_895812" data-name="Trazado 895812" d="M67.133,200.071l-29.817,2.761L7.5,200.071v-3.727H67.133Z" transform="translate(-7.5 -175.288)" fill="#b2e59f"/>
        <path id="Trazado_895813" data-name="Trazado 895813" d="M11.1,200.071v-3.727H7.5v3.727l29.817,2.761,1.8-.167Z" transform="translate(-7.5 -175.288)" fill="#95d6a4"/>
        <path id="Trazado_895814" data-name="Trazado 895814" d="M7.5,267.882V252.967l3.041-1.864,26.776-.688,26.872.688,2.944,1.864v14.916Z" transform="translate(-7.5 -222.871)" fill="#bd6629"/>
        <path id="Trazado_895815" data-name="Trazado 895815" d="M14.14,255.377l-3.6.093L7.5,257.333v14.915h3.6V257.333Z" transform="translate(-7.5 -227.238)" fill="#a45924"/>
        <path id="Trazado_895816" data-name="Trazado 895816" d="M7.5,232.719c2.895.028,2.924,1.439,5.876,1.439,2.982,0,2.982-1.44,5.963-1.44s2.982,1.44,5.963,1.44,2.982-1.44,5.963-1.44,2.981,1.44,5.963,1.44,2.982-1.44,5.963-1.44,2.982,1.44,5.963,1.44,2.982-1.44,5.963-1.44,2.982,1.44,5.964,1.44,2.982-1.44,5.964-1.44h.087v-5.312H7.5Z" transform="translate(-7.5 -202.623)" fill="#d98f61"/>
        <circle id="Elipse_11696" data-name="Elipse 11696" cx="1.864" cy="1.864" r="1.864" transform="translate(9.318 49.009)" fill="#f3cbb1"/>
        <circle id="Elipse_11697" data-name="Elipse 11697" cx="1.864" cy="1.864" r="1.864" transform="translate(37.271 49.009)" fill="#f3cbb1"/>
        <g id="Grupo_1106055" data-name="Grupo 1106055" transform="translate(5.961 0)">
          <g id="Grupo_1106053" data-name="Grupo 1106053" transform="translate(25.719)">
            <path id="Trazado_895817" data-name="Trazado 895817" d="M280.183,34.987c-3.769,1.013-7.36-.138-8.4-3.877-1.062-3.806,1.383-7.5,5.112-8.807,9.335-3.269,15.814.036,15.814.036C287.556,23.724,286.995,33.156,280.183,34.987Z" transform="translate(-271.53 -20.86)" fill="#95d6a4"/>
          </g>
          <path id="Trazado_895818" data-name="Trazado 895818" d="M275.379,31.111c-1.062-3.806,1.383-7.5,5.112-8.807a25.319,25.319,0,0,1,6.385-1.371,24.165,24.165,0,0,0-9.985,1.371c-3.729,1.306-6.174,5-5.112,8.807.983,3.52,4.223,4.746,7.745,4.032A5.452,5.452,0,0,1,275.379,31.111Z" transform="translate(-245.811 -20.861)" fill="#85c691"/>
          <g id="Grupo_1106054" data-name="Grupo 1106054" transform="translate(0 2.542)">
            <path id="Trazado_895819" data-name="Trazado 895819" d="M69.654,56.19c3.765,1.029,7.36-.108,8.419-3.843,1.078-3.8-1.352-7.507-5.076-8.828-9.321-3.307-15.814-.029-15.814-.029C62.326,44.9,62.849,54.33,69.654,56.19Z" transform="translate(-57.183 -42.042)" fill="#95d6a4"/>
          </g>
          <path id="Trazado_895820" data-name="Trazado 895820" d="M73.253,56.194c-5.57-1.522-6.931-8.12-10.062-11.234a1.467,1.467,0,0,1,.748-2.467,20.607,20.607,0,0,1,2.585-.374,18.977,18.977,0,0,0-9.342,1.376c5.143,1.405,5.666,10.84,12.471,12.7a8.719,8.719,0,0,0,4.291.165Q73.6,56.288,73.253,56.194Z" transform="translate(-57.183 -39.504)" fill="#85c691"/>
        </g>
      </g>
      <g id="Grupo_1106057" data-name="Grupo 1106057" transform="translate(0 13.293)">
        <path id="Trazado_895821" data-name="Trazado 895821" d="M60.533,34.357H31.806a19.292,19.292,0,0,1,1.912-6.642A7.01,7.01,0,0,0,38.7,29.581h0c9.8,0,10.178-11.658,15.284-13.031a.89.89,0,0,0,.665-.873c0-1.373-5.155-2.383-8.5-2.383-4.54,0-14.482,1.435-14.482,9.388a7.335,7.335,0,0,0,.859,3.453,17.27,17.27,0,0,0-1.541,3.453,20.1,20.1,0,0,0-2.389-2.258,7.625,7.625,0,0,0,.3-2.119c0-7.043-8.428-8.773-9.276-8.773a.9.9,0,0,0-.2,1.778c.752.17,7.67,1.295,7.67,7.013a5.73,5.73,0,0,1-.08.956c-2.323-1.516-3.814-1.893-7.351-3.453a.9.9,0,1,0-.7,1.658l4.192,1.769a18.262,18.262,0,0,1,3.258,1.787,4.859,4.859,0,0,1-4.527,2.4c-7.661,0-8.441-8.746-12.77-12.018a21.122,21.122,0,0,1,6.588-.651.9.9,0,0,0,.05-1.8q-.712-.041-1.379-.04c-3.285,0-8.421.96-8.421,2.345a.889.889,0,0,0,.661.872c5.138,1.4,5.395,13.094,15.269,13.094a6.7,6.7,0,0,0,5.967-3.108,18.264,18.264,0,0,1,2.565,2.66A26.311,26.311,0,0,0,30,34.357H.9a.9.9,0,0,0-.9.9C0,53.294,0,70.664,0,70.664a.9.9,0,0,0,.9.9H60.533c1.178,0,.9-1.013.9-5.551V35.257a.9.9,0,0,0-.9-.9ZM33.482,22.645c0-7.684,12.535-7.541,12.705-7.541a19.478,19.478,0,0,1,5.3.709c-4.335,3.251-5.15,11.963-12.787,11.963a5.1,5.1,0,0,1-4.017-1.641c3.489-4.876,6.985-3.595,6.985-5.356,0-.1-.015-.171-.019-.151a.9.9,0,0,0-.876-.7,13.036,13.036,0,0,0-7.025,4.456,5.842,5.842,0,0,1-.268-1.741ZM59.633,36.157v1.927H51.4a.9.9,0,0,0,0,1.8h8.231v3.549c-2.5.234-2.692,1.4-5.151,1.4-2.664,0-2.773-1.44-5.964-1.44-3.207,0-3.279,1.44-5.963,1.44-2.664,0-2.773-1.44-5.963-1.44-2.756,0-3.3,1.106-5,1.371V39.884H47.48a.9.9,0,0,0,0-1.8H31.6c.005-.349,0-.883.055-1.927ZM1.8,39.884h28v4.9c-1.83-.236-2.3-1.391-5.129-1.391-3.207,0-3.279,1.44-5.963,1.44-2.664,0-2.773-1.44-5.963-1.44-3.207,0-3.279,1.44-5.963,1.44-2.423,0-2.6-1.105-4.976-1.384Zm0-3.727H29.847c-.056,1.044-.049,1.735-.052,1.927H1.8ZM59.633,69.764H1.8V60.383H13.847a.9.9,0,0,0,0-1.8H1.8V45.268c1.681.27,2.23,1.368,4.976,1.368,3.207,0,3.279-1.44,5.963-1.44,2.664,0,2.773,1.44,5.963,1.44,3.207,0,3.279-1.44,5.963-1.44,2.454,0,2.648,1.162,5.129,1.4v2.446L24.3,50.777c-3.592-1.921-3.5-2.01-3.9-2.01a.9.9,0,0,0-.433,1.69l3.052,1.67-1.565,3.167a.9.9,0,1,0,1.614.8l1.777-3.6L29.8,50.93v2.683a.9.9,0,0,0,1.8,0v-2.66l4.88,1.54,1.777,3.6a.9.9,0,1,0,1.614-.8L38.3,52.126l3.052-1.67a.9.9,0,1,0-.864-1.579l-3.473,1.9-5.422-1.71V46.583c2.392-.274,2.566-1.387,5-1.387,2.664,0,2.773,1.44,5.963,1.44,3.207,0,3.279-1.44,5.963-1.44,2.664,0,2.773,1.44,5.964,1.44,2.86,0,3.282-1.16,5.151-1.393v13.34H17.769a.9.9,0,1,0,0,1.8H59.633Z" transform="translate(0 -13.293)"/>
        <path id="Trazado_895822" data-name="Trazado 895822" d="M31.955,452.875a.9.9,0,1,0,.9.9A.9.9,0,0,0,31.955,452.875Z" transform="translate(-27.331 -400.131)"/>
        <path id="Trazado_895823" data-name="Trazado 895823" d="M80.419,421.811a2.763,2.763,0,1,0,2.763,2.763A2.767,2.767,0,0,0,80.419,421.811Zm0,3.727a.964.964,0,1,1,.964-.964A.965.965,0,0,1,80.419,425.538Z" transform="translate(-68.338 -372.794)"/>
        <path id="Trazado_895824" data-name="Trazado 895824" d="M313.386,427.338a2.763,2.763,0,1,0-2.763-2.763A2.767,2.767,0,0,0,313.386,427.338Zm0-3.727a.964.964,0,1,1-.964.964A.965.965,0,0,1,313.386,423.611Z" transform="translate(-273.352 -372.794)"/>
        <path id="Trazado_895825" data-name="Trazado 895825" d="M171.738,423.607a.9.9,0,1,0-.9-.9A.9.9,0,0,0,171.738,423.607Z" transform="translate(-150.34 -372.791)"/>
        <path id="Trazado_895826" data-name="Trazado 895826" d="M249.22,445a.9.9,0,1,0-.706-.706.9.9,0,0,0,.706.706Z" transform="translate(-218.68 -391.632)"/>
        <path id="Trazado_895827" data-name="Trazado 895827" d="M404.884,454.656a.9.9,0,1,0-1.076-.882A.9.9,0,0,0,404.884,454.656Z" transform="translate(-355.356 -400.13)"/>
        <path id="Trazado_895828" data-name="Trazado 895828" d="M466.661,432.327a.9.9,0,1,0-.724-.882A.9.9,0,0,0,466.661,432.327Z" transform="translate(-410.031 -380.48)"/>
      </g>
    </g>
  </g>
</svg>
