<svg xmlns="http://www.w3.org/2000/svg" width="91.215" height="91.215" viewBox="0 0 91.215 91.215">
  <g id="Grupo_1106062" data-name="Grupo 1106062" transform="translate(-1314.333 -278)">
    <g id="Grupo_1103991" data-name="Grupo 1103991" transform="translate(8129.783 13083.855)">
      <g id="Grupo_1103760" data-name="Grupo 1103760" transform="translate(-6815.45 -12805.855)">
        <g id="Trazado_874102" data-name="Trazado 874102" transform="translate(0 0)" fill="#8ab72c">
          <path d="M 45.60742568969727 88.71485137939453 C 39.7868537902832 88.71485137939453 34.14172744750977 87.57545471191406 28.8288402557373 85.32828521728516 C 23.6959400177002 83.15725708007812 19.0855827331543 80.04869842529297 15.12586879730225 76.08898162841797 C 11.16615390777588 72.12926483154297 8.057597160339355 67.51891326904297 5.886568546295166 62.38601303100586 C 3.639397144317627 57.07312393188477 2.499997138977051 51.42799758911133 2.499997138977051 45.60742568969727 C 2.499997138977051 39.7868537902832 3.639397144317627 34.14172744750977 5.886568546295166 28.8288402557373 C 8.057597160339355 23.6959400177002 11.16615390777588 19.0855827331543 15.12586879730225 15.12586879730225 C 19.0855827331543 11.16615390777588 23.6959400177002 8.057597160339355 28.8288402557373 5.886568546295166 C 34.14172744750977 3.639397144317627 39.7868537902832 2.499997138977051 45.60742568969727 2.499997138977051 C 51.42799758911133 2.499997138977051 57.07312393188477 3.639397144317627 62.38601303100586 5.886568546295166 C 67.51891326904297 8.057597160339355 72.12926483154297 11.16615390777588 76.08898162841797 15.12586879730225 C 80.04869842529297 19.0855827331543 83.15725708007812 23.6959400177002 85.32828521728516 28.8288402557373 C 87.57545471191406 34.14172744750977 88.71485137939453 39.7868537902832 88.71485137939453 45.60742568969727 C 88.71485137939453 51.42799758911133 87.57545471191406 57.07312393188477 85.32828521728516 62.38601303100586 C 83.15725708007812 67.51891326904297 80.04869842529297 72.12926483154297 76.08898162841797 76.08898162841797 C 72.12926483154297 80.04869842529297 67.51891326904297 83.15725708007812 62.38601303100586 85.32828521728516 C 57.07312393188477 87.57545471191406 51.42799758911133 88.71485137939453 45.60742568969727 88.71485137939453 Z" stroke="none"/>
          <path d="M 45.60742568969727 4.999992370605469 C 40.12326049804688 4.999992370605469 34.80579376220703 6.072959899902344 29.80272674560547 8.189079284667969 C 24.96781158447266 10.23407745361328 20.62457275390625 13.16271209716797 16.89363861083984 16.89363861083984 C 13.16271209716797 20.62457275390625 10.23407745361328 24.96781158447266 8.189079284667969 29.80272674560547 C 6.072959899902344 34.80579376220703 4.999992370605469 40.12326049804688 4.999992370605469 45.60742568969727 C 4.999992370605469 51.09159088134766 6.072959899902344 56.4090576171875 8.189079284667969 61.41212463378906 C 10.23406219482422 66.24703979492188 13.16271209716797 70.59027099609375 16.89363861083984 74.32121276855469 C 20.62455749511719 78.05213928222656 24.96781158447266 80.98077392578125 29.80270767211914 83.0257568359375 C 34.8057746887207 85.14187622070312 40.12326049804688 86.21484375 45.60742568969727 86.21484375 C 51.09159088134766 86.21484375 56.4090576171875 85.14187622070312 61.41212463378906 83.0257568359375 C 66.24703979492188 80.98077392578125 70.59027099609375 78.05213928222656 74.32121276855469 74.32121276855469 C 78.05213928222656 70.59027099609375 80.98077392578125 66.24703979492188 83.0257568359375 61.41212463378906 C 85.14187622070312 56.4090576171875 86.21484375 51.09159088134766 86.21484375 45.60742568969727 C 86.21484375 40.12326049804688 85.14187622070312 34.8057746887207 83.0257568359375 29.80270767211914 C 80.98077392578125 24.96781158447266 78.05213928222656 20.62455749511719 74.32121276855469 16.89363861083984 C 70.59027099609375 13.16271209716797 66.24703979492188 10.23406219482422 61.41212463378906 8.189079284667969 C 56.4090576171875 6.072959899902344 51.09159088134766 4.999992370605469 45.60742568969727 4.999992370605469 M 45.60742568969727 -7.62939453125e-06 C 70.79570770263672 -7.62939453125e-06 91.21484375 20.41914367675781 91.21484375 45.60742568969727 C 91.21484375 70.79570770263672 70.79570770263672 91.21484375 45.60742568969727 91.21484375 C 20.41914367675781 91.21484375 -7.62939453125e-06 70.79570770263672 -7.62939453125e-06 45.60742568969727 C -7.62939453125e-06 20.41914367675781 20.41914367675781 -7.62939453125e-06 45.60742568969727 -7.62939453125e-06 Z" stroke="none" fill="#fff"/>
        </g>
      </g>
    </g>
    <g id="XMLID_3704_" transform="translate(1330.333 293)">
      <path id="XMLID_3164_" d="M54.32,122H12.383A2.383,2.383,0,0,0,10,124.383v4.766a2.383,2.383,0,0,0,2.383,2.383H54.32a2.383,2.383,0,0,0,2.383-2.383v-4.766A2.383,2.383,0,0,0,54.32,122Z" transform="translate(-8.809 -107.465)" fill="#ffd89e"/>
      <path id="XMLID_3163_" d="M54.32,226.794V201.843H12.383v24.951a1.6,1.6,0,0,1-.948,1.474A2.383,2.383,0,0,0,10,230.455v4.766a2.383,2.383,0,0,0,2.383,2.383H54.32a2.383,2.383,0,0,0,2.383-2.383v-4.766a2.384,2.384,0,0,0-1.435-2.187,1.6,1.6,0,0,1-.948-1.474Z" transform="translate(-8.809 -177.796)" fill="#ffcb7c"/>
      <path id="XMLID_3162_" d="M63.694,23.344a8.477,8.477,0,0,1,7.99-8.462,10.671,10.671,0,0,1,17.928,0,8.477,8.477,0,0,1,7.99,8.462Z" transform="translate(-56.106 -8.809)" fill="#dca98b"/>
      <g id="XMLID_1951_" transform="translate(15.347 30.515)">
        <path id="XMLID_3125_" d="M206.194,314.22s4.547,1.171,7.72-2,1.97-7.688,1.97-7.688-4.515-1.2-7.688,1.97S206.194,314.22,206.194,314.22Z" transform="translate(-196.789 -298.566)" fill="#d8ec84"/>
        <path id="XMLID_3115_" d="M136.1,258.148c-2.923-2.923-7.081-1.815-7.081-1.815s-1.108,4.158,1.815,7.081,7.111,1.844,7.111,1.844S139.027,261.071,136.1,258.148Z" transform="translate(-128.817 -256.128)" fill="#d8ec84"/>
      </g>
      <path id="XMLID_3161_" d="M255.4,416.519a7.345,7.345,0,0,1,6.923-7.332,9.246,9.246,0,0,1,15.534,0,7.345,7.345,0,0,1,6.923,7.332Z" transform="translate(-224.969 -356.711)" fill="#dca98b"/>
      <g id="XMLID_151_" transform="translate(0)">
        <path id="XMLID_487_" d="M139.4,252.122c-.211-.056-5.22-1.338-8.837,2.279l-.048.049a8.42,8.42,0,0,0-2.387-5.962c-3.37-3.37-8.034-2.176-8.23-2.124a1.191,1.191,0,0,0-.844.844c-.052.2-1.246,4.861,2.124,8.23a8.46,8.46,0,0,0,6.1,2.389c.253,0,.489-.01.707-.024v9.684a1.191,1.191,0,0,0,2.383,0v-3.17c.309.029.663.05,1.053.05a9.083,9.083,0,0,0,6.548-2.564c3.618-3.618,2.335-8.626,2.279-8.837A1.191,1.191,0,0,0,139.4,252.122Zm-16.539,1.632a6.3,6.3,0,0,1-1.63-5.209,6.327,6.327,0,0,1,5.211,1.628,6.4,6.4,0,0,1,1.654,5.233A6.423,6.423,0,0,1,122.862,253.754Zm13.419,6.365a7.073,7.073,0,0,1-5.846,1.815,7.109,7.109,0,0,1,1.813-5.848,6.97,6.97,0,0,1,5.819-1.789A7,7,0,0,1,136.281,260.119Z" transform="translate(-104.651 -216.795)"/>
        <path id="XMLID_576_" d="M53.55,51.341A10.4,10.4,0,0,0,46.7,47.175V25.052a3.58,3.58,0,0,0,2.383-3.369V16.918a3.578,3.578,0,0,0-3.574-3.574h-2.9a9.672,9.672,0,0,0-8.44-8.408,11.862,11.862,0,0,0-19.259,0,9.672,9.672,0,0,0-8.44,8.408h-2.9A3.578,3.578,0,0,0,0,16.918v4.766a3.58,3.58,0,0,0,2.383,3.369V49a.413.413,0,0,1-.231.381A3.574,3.574,0,0,0,0,52.659v4.766A3.578,3.578,0,0,0,3.574,61H30.428a1.192,1.192,0,0,0,1.191-1.191,6.154,6.154,0,0,1,5.8-6.143,1.191,1.191,0,0,0,.933-.542,8.055,8.055,0,0,1,13.534,0,1.192,1.192,0,0,0,.933.542,6.153,6.153,0,0,1,5.8,6.143,1.191,1.191,0,0,0,2.383,0,8.54,8.54,0,0,0-7.45-8.467ZM15.646,7.262a1.191,1.191,0,0,0,.933-.542,9.48,9.48,0,0,1,15.928,0,1.192,1.192,0,0,0,.933.542,7.287,7.287,0,0,1,6.769,6.081H8.877a7.287,7.287,0,0,1,6.769-6.081Zm21.04,44.079a8.542,8.542,0,0,0-7.367,7.275H3.574a1.193,1.193,0,0,1-1.191-1.191V52.659A1.192,1.192,0,0,1,3.1,51.566,2.788,2.788,0,0,0,4.766,49V25.257h14.4a1.191,1.191,0,0,0,0-2.383H3.574a1.193,1.193,0,0,1-1.191-1.191V16.918a1.193,1.193,0,0,1,1.191-1.191H45.511A1.193,1.193,0,0,1,46.7,16.918v4.766a1.193,1.193,0,0,1-1.191,1.191H29.884a1.191,1.191,0,0,0,0,2.383H44.32V47.086a10.4,10.4,0,0,0-7.634,4.255Z" transform="translate(0)"/>
        <path id="XMLID_593_" d="M197.191,194.223a1.192,1.192,0,1,0-.842-.349A1.195,1.195,0,0,0,197.191,194.223Z" transform="translate(-172.649 -168.984)"/>
      </g>
    </g>
  </g>
</svg>
