<svg xmlns="http://www.w3.org/2000/svg" width="94.574" height="94.574" viewBox="0 0 94.574 94.574">
  <g id="Grupo_1106060" data-name="Grupo 1106060" transform="translate(-950.333 -246)">
    <g id="Grupo_1103989" data-name="Grupo 1103989" transform="translate(8119.971 12871.25)">
      <g id="Grupo_1103758" data-name="Grupo 1103758" transform="translate(-8124.971 -12790.25)">
        <g id="Trazado_874102" data-name="Trazado 874102" transform="translate(955.333 165)" fill="#2a7e11">
          <path d="M 47.287109375 92.07422637939453 C 41.23979568481445 92.07422637939453 35.37467956542969 90.89041137695312 29.85470962524414 88.55564880371094 C 24.52179527282715 86.30002593994141 19.7318229675293 83.07035064697266 15.61783790588379 78.95638275146484 C 11.50386619567871 74.84239196777344 8.274194717407227 70.05242156982422 6.018566608428955 64.71951293945312 C 3.683809280395508 59.19953918457031 2.499994993209839 53.33442306518555 2.499994993209839 47.287109375 C 2.499994993209839 41.23979568481445 3.683809280395508 35.37467956542969 6.018566608428955 29.85470962524414 C 8.274194717407227 24.52179527282715 11.50386619567871 19.7318229675293 15.61783790588379 15.61783790588379 C 19.7318229675293 11.50386619567871 24.52179527282715 8.274194717407227 29.85470962524414 6.018566608428955 C 35.37467956542969 3.683809280395508 41.23979568481445 2.499994993209839 47.287109375 2.499994993209839 C 53.33442306518555 2.499994993209839 59.19953918457031 3.683809280395508 64.71951293945312 6.018566608428955 C 70.05242156982422 8.274194717407227 74.84239196777344 11.50386619567871 78.95638275146484 15.61783790588379 C 83.07035064697266 19.7318229675293 86.30002593994141 24.52179527282715 88.55564880371094 29.85470962524414 C 90.89041137695312 35.37467956542969 92.07422637939453 41.23979568481445 92.07422637939453 47.287109375 C 92.07422637939453 53.33442306518555 90.89041137695312 59.19953918457031 88.55564880371094 64.71951293945312 C 86.30002593994141 70.05242156982422 83.07035064697266 74.84239196777344 78.95638275146484 78.95638275146484 C 74.84239196777344 83.07035064697266 70.05242156982422 86.30002593994141 64.71951293945312 88.55564880371094 C 59.19953918457031 90.89041137695312 53.33442306518555 92.07422637939453 47.287109375 92.07422637939453 Z" stroke="none"/>
          <path d="M 47.287109375 4.999992370605469 C 41.57617568969727 4.999992370605469 36.03874206542969 6.117362976074219 30.82859420776367 8.321075439453125 C 25.79367828369141 10.45066070556641 21.27079010009766 13.50041198730469 17.38561248779297 17.38561248779297 C 13.50041198730469 21.27079010009766 10.45066070556641 25.79367828369141 8.321075439453125 30.82859420776367 C 6.117362976074219 36.03874206542969 4.999992370605469 41.57617568969727 4.999992370605469 47.287109375 C 4.999992370605469 52.99804306030273 6.117362976074219 58.53547668457031 8.321075439453125 63.74562835693359 C 10.45066070556641 68.78054046630859 13.50041198730469 73.30342864990234 17.38561248779297 77.18861389160156 C 21.27079010009766 81.07379150390625 25.79366302490234 84.12354278564453 30.82859420776367 86.25312805175781 C 36.03874206542969 88.45684051513672 41.57617568969727 89.57421112060547 47.287109375 89.57421112060547 C 52.99804306030273 89.57421112060547 58.53547668457031 88.45684051513672 63.74562835693359 86.25312805175781 C 68.78054046630859 84.12354278564453 73.30342864990234 81.07379150390625 77.18861389160156 77.18861389160156 C 81.07379150390625 73.30342864990234 84.12354278564453 68.78054046630859 86.25312805175781 63.74562835693359 C 88.45684051513672 58.53547668457031 89.57421112060547 52.99804306030273 89.57421112060547 47.287109375 C 89.57421112060547 41.57617568969727 88.45684051513672 36.03874206542969 86.25312805175781 30.82859420776367 C 84.12354278564453 25.79366302490234 81.07379150390625 21.27079010009766 77.18861389160156 17.38561248779297 C 73.30342864990234 13.50041198730469 68.78054046630859 10.45066070556641 63.74562835693359 8.321075439453125 C 58.53547668457031 6.117362976074219 52.99804306030273 4.999992370605469 47.287109375 4.999992370605469 M 47.287109375 -7.62939453125e-06 C 73.40306091308594 -7.62939453125e-06 94.57421112060547 21.17115783691406 94.57421112060547 47.287109375 C 94.57421112060547 73.40306091308594 73.40306091308594 94.57421112060547 47.287109375 94.57421112060547 C 21.17115783691406 94.57421112060547 -7.62939453125e-06 73.40306091308594 -7.62939453125e-06 47.287109375 C -7.62939453125e-06 21.17115783691406 21.17115783691406 -7.62939453125e-06 47.287109375 -7.62939453125e-06 Z" stroke="none" fill="#fff"/>
        </g>
      </g>
    </g>
    <g id="tierra_1_" data-name="tierra (1)" transform="translate(969.333 236.709)">
      <path id="Trazado_895829" data-name="Trazado 895829" d="M101.333,52.586V43.552a3.462,3.462,0,0,0-2.518-3.329l-1.1-.311a3.46,3.46,0,0,0-3.57,1.076l-1.091,1.272a3.411,3.411,0,0,1-5,.192l-.112-.112a3.413,3.413,0,0,0-5.306.6,3.018,3.018,0,0,1-4.491.719l-.12-.1a3.065,3.065,0,0,0-4.128.187l-.587.587a2.656,2.656,0,0,1-4.132-.47L68.09,42.133a4.262,4.262,0,0,0-5.377-1.621l-5.529,2.513c-6.211,3.73-6.991,9.561-1.659,12.427l43.29-.172Z" transform="translate(-46.309 -6.673)" fill="#eaaa83"/>
      <path id="Trazado_895830" data-name="Trazado 895830" d="M17.557,48.22l-.422.192a3.168,3.168,0,0,1-3.784-.906l-.636-.795A2.929,2.929,0,0,0,7.5,48.54v9.034l2.928,3.095,5.47-.022A41.417,41.417,0,0,1,17.557,48.22Z" transform="translate(-6.682 -11.868)" fill="#e4996d"/>
      <path id="Trazado_895831" data-name="Trazado 895831" d="M93.127,142.339V126.385a3.462,3.462,0,0,0-2.518-3.329l-1.1-.311a3.46,3.46,0,0,0-3.57,1.076l-1.091,1.272a3.411,3.411,0,0,1-5,.192l-.112-.112a3.413,3.413,0,0,0-5.306.6,3.018,3.018,0,0,1-4.491.719l-.12-.1a3.065,3.065,0,0,0-4.128.187l-.587.587a2.656,2.656,0,0,1-4.132-.47l-1.085-1.736a4.262,4.262,0,0,0-5.377-1.621l-5.951,2.7a3.158,3.158,0,0,1-1.185.279c-6.315,5.45-6.917,16.346,3.17,19.455l40.069-.2Z" transform="translate(-38.103 -80.471)" fill="#e8a881"/>
      <path id="Trazado_895832" data-name="Trazado 895832" d="M15.95,131.522a3.165,3.165,0,0,1-2.6-1.184l-.636-.795A2.929,2.929,0,0,0,7.5,131.372v15.954l2.364,3.7,9.256-.047a47.968,47.968,0,0,1-3.17-19.455Z" transform="translate(-6.682 -85.665)" fill="#dd8857"/>
      <path id="Trazado_895833" data-name="Trazado 895833" d="M124.765,280.611v-7.947a3.459,3.459,0,0,0-2.518-3.328l-1.1-.312a3.458,3.458,0,0,0-3.57,1.078l-1.091,1.271a3.411,3.411,0,0,1-5,.192l-.112-.112a3.413,3.413,0,0,0-5.306.6,3.018,3.018,0,0,1-4.491.72l-.12-.1a3.065,3.065,0,0,0-4.128.187l-.587.588a2.657,2.657,0,0,1-4.132-.471l-1.085-1.736a4.262,4.262,0,0,0-5.377-1.621l-5.322,2.419c-6.6,7.7.559,17.912,10.84,19.025h22.646A10.457,10.457,0,0,0,124.765,280.611Z" transform="translate(-69.741 -210.796)" fill="#eaaa83"/>
      <path id="Trazado_895834" data-name="Trazado 895834" d="M17.136,277.531a3.169,3.169,0,0,1-3.784-.9l-.636-.8A2.929,2.929,0,0,0,7.5,277.66v8.154a10.457,10.457,0,0,0,10.457,10.457H28.6a44.391,44.391,0,0,1-10.84-19.025Z" transform="translate(-6.682 -215.999)" fill="#e4996d"/>
      <path id="Trazado_895835" data-name="Trazado 895835" d="M397.161,390.578a1.325,1.325,0,0,0,.294-1.428l-.677-1.691a1.337,1.337,0,0,0-.1-.2c-.6-.112-1.09-.107-2.214.723a1.323,1.323,0,0,0-.462,1.478c.691,2.032,1.133,2.432,1.612,2.538a1.322,1.322,0,0,0,.4-.272Z" transform="translate(-350.967 -316.209)" fill="#e8a881"/>
      <path id="Trazado_895836" data-name="Trazado 895836" d="M387.9,384.967a1.323,1.323,0,0,1,.462-1.478l1.138-.854a1.339,1.339,0,0,1,.254-.149,1.324,1.324,0,0,0-1.924-.371l-1.138.854a1.323,1.323,0,0,0-.462,1.478l.662,1.989a1.325,1.325,0,0,0,1.8.79,1.339,1.339,0,0,1-.127-.27Z" transform="translate(-344.043 -311.433)" fill="#dd8857"/>
      <path id="Trazado_895837" data-name="Trazado 895837" d="M275.695,347.675l-.33-2.305a1.369,1.369,0,0,0-1.968-1.032l-.16.08c-1.519.979-1.95,1.561-1.632,2.41l.652,1.74c.112.3.529.567,1.62.67h.463A1.369,1.369,0,0,0,275.695,347.675Z" transform="translate(-241.894 -277.883)" fill="#e8a881"/>
      <path id="Trazado_895838" data-name="Trazado 895838" d="M266.287,350.367l-.652-1.74a2.2,2.2,0,0,1,.494-2.363l-1.843.922a1.37,1.37,0,0,0-.613,1.838l.652,1.3a1.369,1.369,0,0,0,1.225.757h1.218A1.748,1.748,0,0,1,266.287,350.367Z" transform="translate(-234.786 -279.729)" fill="#dd8857"/>
      <path id="Trazado_895839" data-name="Trazado 895839" d="M176.125,386.657l.255-1.533a1.917,1.917,0,0,0-1.475-2.187l-1.406-.313c-2.106-.221-2.843.7-2.843,1.686v2.264c0,.593.365,1.485,1.9,1.686h1.682A1.918,1.918,0,0,0,176.125,386.657Z" transform="translate(-152.043 -312.094)" fill="#e8a881"/>
      <path id="Trazado_895840" data-name="Trazado 895840" d="M160.679,383.262V381a1.918,1.918,0,0,1,1.638-1.9l-1.879-.418a1.917,1.917,0,0,0-2.333,1.871v2.263a1.918,1.918,0,0,0,1.918,1.918h1.348A1.913,1.913,0,0,1,160.679,383.262Z" transform="translate(-140.862 -308.571)" fill="#dd8857"/>
      <path id="Trazado_895841" data-name="Trazado 895841" d="M79.4,365.638l.567-1.419a1.348,1.348,0,0,0-.825-1.78l-.807-.269c-1.26-.346-1.807.339-1.807,1.064v1.559c0,.533.425,1.165,1.443,1.68A1.348,1.348,0,0,0,79.4,365.638Z" transform="translate(-68.181 -293.818)" fill="#e8a881"/>
      <path id="Trazado_895842" data-name="Trazado 895842" d="M69.478,362.666v-1.559a1.472,1.472,0,0,1,1.031-1.454l-.992-.33a1.348,1.348,0,0,0-1.774,1.279v1.4a1.346,1.346,0,0,0,.745,1.2l1.231.615a1.343,1.343,0,0,0,.425.13A1.532,1.532,0,0,1,69.478,362.666Z" transform="translate(-60.354 -291.3)" fill="#dd8857"/>
      <path id="Trazado_895843" data-name="Trazado 895843" d="M52.729,32.763l-1.1-.311a4.291,4.291,0,0,0-4.414,1.331l-1.091,1.272a2.593,2.593,0,0,1-3.8.146,4.235,4.235,0,0,0-6.69.638,2.2,2.2,0,0,1-3.272.525l-.122-.1a3.864,3.864,0,0,0-5.23.237l-.587.587a1.838,1.838,0,0,1-2.86-.325l-1.085-1.735a5.081,5.081,0,0,0-6.409-1.932l-5.95,2.7a2.348,2.348,0,0,1-2.807-.672l-.637-.8A3.747,3.747,0,0,0,0,36.672V69.815A11.288,11.288,0,0,0,11.275,81.09h13.2a.818.818,0,1,0,0-1.636h-13.2a9.65,9.65,0,0,1-9.639-9.639V61.661a2.111,2.111,0,0,1,3.759-1.318l.637.8a3.984,3.984,0,0,0,4.761,1.138l5.951-2.705a3.444,3.444,0,0,1,4.344,1.31l1.085,1.736a3.475,3.475,0,0,0,5.4.615l.586-.588a2.236,2.236,0,0,1,3.025-.138l.122.1a3.836,3.836,0,0,0,5.708-.915,2.6,2.6,0,0,1,4.033-.46l.112.112a4.229,4.229,0,0,0,6.2-.238l1.091-1.272a2.649,2.649,0,0,1,2.726-.823l1.1.312a2.651,2.651,0,0,1,1.923,2.541v7.947a9.65,9.65,0,0,1-9.639,9.639H28.3a.818.818,0,0,0,0,1.636H44.568A11.288,11.288,0,0,0,55.843,69.815V53.99a.818.818,0,1,0-1.636,0v4.519a4.247,4.247,0,0,0-1.477-.756l-1.1-.312a4.291,4.291,0,0,0-4.414,1.332l-1.091,1.272a2.593,2.593,0,0,1-3.8.146l-.112-.112a4.23,4.23,0,0,0-6.578.75,2.2,2.2,0,0,1-3.272.525l-.122-.1a3.864,3.864,0,0,0-5.231.238l-.586.587a1.839,1.839,0,0,1-2.86-.326l-1.085-1.735a5.081,5.081,0,0,0-6.409-1.932l-5.95,2.7a2.349,2.349,0,0,1-2.806-.67l-.637-.8a3.744,3.744,0,0,0-5.037-.752V45.707A2.111,2.111,0,0,1,5.4,44.389l.636.795a3.982,3.982,0,0,0,4.761,1.139l5.951-2.705a3.444,3.444,0,0,1,4.344,1.31l1.085,1.736a3.474,3.474,0,0,0,5.4.615l.587-.587a2.235,2.235,0,0,1,3.025-.138l.122.1a3.836,3.836,0,0,0,5.708-.914,2.594,2.594,0,0,1,4.033-.46l.112.112a4.229,4.229,0,0,0,6.2-.238l1.091-1.272a2.651,2.651,0,0,1,2.727-.822l1.1.311a2.654,2.654,0,0,1,1.923,2.542v4.243a.818.818,0,0,0,1.636,0V36.879a4.3,4.3,0,0,0-3.113-4.116Zm0,9.035-1.1-.311a4.291,4.291,0,0,0-4.414,1.331L46.124,44.09a2.593,2.593,0,0,1-3.8.146,4.235,4.235,0,0,0-6.69.638,2.2,2.2,0,0,1-3.272.525l-.122-.1a3.864,3.864,0,0,0-5.23.237l-.587.587a1.838,1.838,0,0,1-2.86-.325l-1.085-1.735a5.081,5.081,0,0,0-6.409-1.932l-5.95,2.7a2.348,2.348,0,0,1-2.807-.672l-.637-.8a3.741,3.741,0,0,0-5.036-.752V36.672A2.111,2.111,0,0,1,5.4,35.355l.636.795a3.982,3.982,0,0,0,4.761,1.139l5.951-2.705a3.444,3.444,0,0,1,4.344,1.31l1.085,1.736a3.474,3.474,0,0,0,5.4.615l.587-.587a2.236,2.236,0,0,1,3.025-.138l.122.1a3.836,3.836,0,0,0,5.708-.914,2.594,2.594,0,0,1,4.034-.46l.112.112a4.229,4.229,0,0,0,6.2-.238l1.091-1.272a2.65,2.65,0,0,1,2.727-.822l1.1.311a2.653,2.653,0,0,1,1.923,2.542v5.675a4.251,4.251,0,0,0-1.477-.757Z"/>
      <path id="Trazado_895844" data-name="Trazado 895844" d="M153.341,378.871h3.029a2.727,2.727,0,0,0,2.7-2.286l.255-1.533a2.735,2.735,0,0,0-2.1-3.12l-3.285-.73a2.735,2.735,0,0,0-3.328,2.67v2.264A2.739,2.739,0,0,0,153.341,378.871Zm-1.1-5a1.1,1.1,0,0,1,1.337-1.073l3.285.73a1.1,1.1,0,0,1,.846,1.254l-.255,1.533a1.1,1.1,0,0,1-1.084.919h-3.029a1.1,1.1,0,0,1-1.1-1.1Z" transform="translate(-134.18 -301.887)"/>
      <path id="Trazado_895845" data-name="Trazado 895845" d="M262.71,340.891l-.33-2.3a2.187,2.187,0,0,0-3.144-1.648h0l-2,1a2.186,2.186,0,0,0-.979,2.935l.652,1.3a2.176,2.176,0,0,0,1.957,1.209h1.681A2.188,2.188,0,0,0,262.71,340.891Zm-2.166.86h-1.681a.548.548,0,0,1-.494-.3l-.652-1.3a.551.551,0,0,1,.248-.74l2-1a.551.551,0,0,1,.792.416l.33,2.306a.551.551,0,0,1-.546.629Z" transform="translate(-228.099 -271.215)"/>
      <path id="Trazado_895846" data-name="Trazado 895846" d="M380.652,374.768l-1.137.854a2.137,2.137,0,0,0-.748,2.392l.662,1.989a2.143,2.143,0,0,0,3.548.838l1.152-1.152a2.142,2.142,0,0,0,.474-2.31l-.676-1.69a2.143,2.143,0,0,0-3.275-.92Zm2.32,3.763-1.152,1.152a.507.507,0,0,1-.839-.2l-.663-1.989a.5.5,0,0,1,.177-.565l1.137-.854a.507.507,0,0,1,.775.218l.676,1.69A.506.506,0,0,1,382.972,378.531Z" transform="translate(-337.357 -304.741)"/>
      <path id="Trazado_895847" data-name="Trazado 895847" d="M66.216,355.337a2.166,2.166,0,0,0-1.326-2.859l-1.8-.6a2.166,2.166,0,0,0-2.851,2.055v1.4a2.151,2.151,0,0,0,1.2,1.936l1.231.615a2.167,2.167,0,0,0,2.979-1.133Zm-1.519-.608-.567,1.419a.53.53,0,0,1-.729.278l-1.232-.616a.525.525,0,0,1-.292-.473v-1.4a.53.53,0,0,1,.7-.5l1.8.6a.53.53,0,0,1,.324.7Z" transform="translate(-53.672 -284.632)"/>
      <path id="Trazado_895848" data-name="Trazado 895848" d="M98.712,193.618a.818.818,0,0,0,0,1.636h2.464a.818.818,0,0,0,0-1.636Z" transform="translate(-87.217 -143.731)"/>
      <path id="Trazado_895849" data-name="Trazado 895849" d="M204.136,231.269a.818.818,0,1,0,0,1.636h1.643a.818.818,0,0,0,0-1.636Z" transform="translate(-181.143 -177.276)"/>
      <path id="Trazado_895850" data-name="Trazado 895850" d="M309.56,216.209a.818.818,0,1,0,0,1.636h4.928a.818.818,0,0,0,0-1.636Z" transform="translate(-275.068 -163.858)"/>
      <path id="Trazado_895851" data-name="Trazado 895851" d="M430.046,186.088a.818.818,0,1,0,0,1.636h1.643a.818.818,0,1,0,0-1.636Z" transform="translate(-382.413 -137.023)"/>
      <path id="Trazado_895852" data-name="Trazado 895852" d="M399.924,231.269a.818.818,0,1,0,0,1.636h.821a.818.818,0,0,0,0-1.636Z" transform="translate(-355.576 -177.276)"/>
      <path id="Trazado_895853" data-name="Trazado 895853" d="M46,231.269a.818.818,0,1,0,0,1.636h4.107a.818.818,0,0,0,0-1.636Z" transform="translate(-40.254 -177.276)"/>
      <path id="Trazado_895854" data-name="Trazado 895854" d="M131.294,322.451a.818.818,0,0,0-.818-.818h-1.643a.818.818,0,1,0,0,1.636h1.643A.818.818,0,0,0,131.294,322.451Z" transform="translate(-114.053 -257.784)"/>
      <path id="Trazado_895855" data-name="Trazado 895855" d="M271.909,419.527a.818.818,0,0,0,0,1.636h2.464a.818.818,0,0,0,0-1.636Z" transform="translate(-241.524 -345.001)"/>
      <path id="Trazado_895856" data-name="Trazado 895856" d="M373.91,336.694H369.8a.818.818,0,0,0,0,1.636h4.107a.818.818,0,0,0,0-1.636Z" transform="translate(-328.741 -271.202)"/>
      <path id="Trazado_895857" data-name="Trazado 895857" d="M84.472,427.057h-.821a.818.818,0,1,0,0,1.636h.821a.818.818,0,1,0,0-1.636Z" transform="translate(-73.799 -351.71)"/>
      <path id="Trazado_895858" data-name="Trazado 895858" d="M454.279,360.921a.818.818,0,0,0,0-1.636h-1.643a.818.818,0,0,0,0,1.636Z" transform="translate(-402.539 -291.329)"/>
    </g>
  </g>
</svg>
